<svg xmlns="http://www.w3.org/2000/svg" viewBox="0 0 342.18 352.06"><defs><style>.cls-1{fill:#f5f5ff;}.cls-2{fill:#d3ddf7;}.cls-3{fill:#7584f1;}.cls-4,.cls-5{fill:none;stroke:#000;}.cls-4{stroke-linejoin:round;}.cls-5{stroke-miterlimit:10;}.cls-6{font-size:12px;font-family:Lexend-Light, Lexend Light;font-weight:300;}.cls-7{letter-spacing:0em;}.cls-8{letter-spacing:-0.01em;}.cls-9{letter-spacing:-0.01em;}.cls-10{letter-spacing:-0.03em;}</style></defs><g id="BACKGROUND"><ellipse class="cls-1" cx="306.55" cy="264.22" rx="142.42" ry="160.23" transform="translate(-177.12 41.14) rotate(-18.64)"/></g><g id="OBJECTS"><rect class="cls-2" y="99.16" width="248.9" height="164.01" rx="10.16"/><path class="cls-3" d="M347.49,169.86H118.91A10.15,10.15,0,0,0,108.75,180v10h248.9V180A10.15,10.15,0,0,0,347.49,169.86Z" transform="translate(-108.75 -70.7)"/><circle class="cls-4" cx="207.61" cy="109.55" r="3.6"/><circle class="cls-4" cx="221.06" cy="109.55" r="3.6"/><circle class="cls-4" cx="234.51" cy="109.55" r="3.6"/><path class="cls-3" d="M210.81,220.13c-2.83,0-5.58-1.9-7.76-3.72l-2.65-2.21a8.7,8.7,0,0,0-5.59-2.1H172.19a3.72,3.72,0,0,0-3.72,3.71v83.34a5,5,0,0,0,5,5H287.67a5,5,0,0,0,5-5v-74a5,5,0,0,0-5-5Z" transform="translate(-108.75 -70.7)"/><path class="cls-5" d="M283.56,236.11h-32.3a2.61,2.61,0,0,1-2.61-2.61h0a2.6,2.6,0,0,1,2.61-2.6h32.3a2.6,2.6,0,0,1,2.61,2.6h0A2.61,2.61,0,0,1,283.56,236.11Z" transform="translate(-108.75 -70.7)"/><path class="cls-2" d="M324.86,70.71a33,33,0,0,1,22.24,56.54,4.16,4.16,0,0,0-1.19,3.63l2.45,14.47-15.05-8.77a4,4,0,0,0-2.83-.48,33.49,33.49,0,0,1-11.59.27,33,33,0,0,1,6-65.66Z" transform="translate(-108.75 -70.7)"/><path d="M323,118.47a1.28,1.28,0,0,1-1-.43,1.84,1.84,0,0,1-.36-1.21,1.77,1.77,0,0,1,.38-1.19,1.3,1.3,0,0,1,1-.46,1.26,1.26,0,0,1,1.07.44,1.89,1.89,0,0,1,.35,1.21,1.87,1.87,0,0,1-.37,1.16A1.23,1.23,0,0,1,323,118.47Zm-.28-11.37c0-.94-.07-1.91-.1-2.9s-.07-2-.08-3,0-2,0-3V86.14h1.15l.05,12.06c0,1,0,2,0,3s0,2-.08,3-.07,2-.11,2.9Z" transform="translate(-108.75 -70.7)"/></g><g id="TEXTS"><text class="cls-6" transform="translate(83.92 200.23)">No <tspan class="cls-7" x="17.03" y="0">R</tspan><tspan x="23.53" y="0">e</tspan><tspan class="cls-8" x="29.54" y="0">c</tspan><tspan x="34.85" y="0">o</tspan><tspan class="cls-9" x="41.44" y="0">r</tspan><tspan x="45.24" y="0">d </tspan><tspan class="cls-10" x="54.55" y="0">F</tspan><tspan x="60.02" y="0">ound</tspan></text></g></svg>