<svg width="51" height="51" viewBox="0 0 51 51" fill="none" xmlns="http://www.w3.org/2000/svg">
<path d="M32.6175 37.9393C32.6175 37.9393 31.9932 40.0516 29.8522 39.5271C27.7112 39.0025 22.6404 37.7816 22.6404 37.7816" stroke="#132A3A" stroke-miterlimit="10" stroke-linecap="round" stroke-linejoin="round"/>
<path d="M32.6175 37.9393C32.6175 37.9393 31.9932 40.0516 29.8522 39.5271C27.7112 39.0025 22.6404 37.7816 22.6404 37.7816" stroke="#132A3A" stroke-miterlimit="10" stroke-linecap="round" stroke-linejoin="round"/>
<path d="M30.8798 10.8373C33.5962 10.8373 35.7984 8.63512 35.7984 5.91863C35.7984 3.20215 33.5962 1 30.8798 1C28.1633 1 25.9611 3.20215 25.9611 5.91863C25.9611 8.63512 28.1633 10.8373 30.8798 10.8373Z" stroke="#45B14A" stroke-miterlimit="10" stroke-linecap="round" stroke-linejoin="round"/>
<path d="M32.3078 24.166H38.0207C39.0391 24.166 39.8647 23.3404 39.8647 22.322V18.0227C39.8647 14.0707 36.6313 10.8373 32.6793 10.8373H29.0804C25.1284 10.8373 21.8949 14.0707 21.8949 18.0227V22.3219C21.8949 23.3404 22.7205 24.1659 23.7389 24.1659H28.8571M10.1622 46.8364L13.7729 45.4656C16.3568 44.6234 19.0656 44.5382 21.2352 45.404L25.8423 47.2432C26.8493 47.5904 29.1628 48.1308 31.5634 46.9003L31.5654 46.8994L36.38 44.7697L39.5359 43.3738L47.6493 39.785C48.1362 39.5353 50.585 38.0661 49.4878 35.5717C48.2162 32.9162 45.2895 34.1714 45.0437 34.2633L32.6178 37.9395C32.6178 37.9395 33.4684 35.4402 30.8924 34.4121C23.7532 31.5621 22.9019 31.0802 21.0951 31.0515L21.0949 31.0513C15.5096 31.0699 14.4977 31.1155 11.722 32.3578C10.2756 33.0059 8.89484 33.7913 7.59864 34.7033C6.75331 35.2976 5.8153 35.7475 4.81902 36.0215L1.42853 36.9537C1.23865 37.006 1.07116 37.1191 0.951793 37.2757C0.832423 37.4323 0.767769 37.6238 0.767761 37.8207V49.1C0.767761 49.7293 1.39767 50.164 1.98607 49.9406L6.9362 48.0612" stroke="#132A3A" stroke-miterlimit="10" stroke-linecap="round" stroke-linejoin="round"/>
</svg>
