<svg width="51" height="51" viewBox="0 0 51 51" fill="none" xmlns="http://www.w3.org/2000/svg">
<path d="M37.732 17.3169H45.6193M37.732 14.3591H45.6193M40.1914 11.4014H45.6193M37.732 6.03368H41.6757M13.4377 34.9965V23.0263M13.4377 19.5188V14.2884C13.4377 14.1532 13.4915 14.0235 13.5871 13.9279C13.6827 13.8322 13.8124 13.7785 13.9477 13.7785H30.6744C30.8096 13.7785 30.9393 13.8322 31.0349 13.9279C31.1306 14.0235 31.1843 14.1532 31.1843 14.2884V37.4462M47.1968 21.7042H36.1546C35.3923 21.7042 34.7743 21.0862 34.7743 20.3239V2.38028C34.7743 1.61797 35.3923 1 36.1546 1H47.1968C47.9591 1 48.5771 1.61797 48.5771 2.38028V20.3239C48.5771 21.0862 47.9591 21.7042 47.1968 21.7042Z" stroke="#132A3A" stroke-miterlimit="10" stroke-linecap="round" stroke-linejoin="round"/>
<path d="M22.6258 10.0774V3.05396M7.3084 32.8984L5.5168 31.9668C4.07204 31.2154 2.28823 31.7743 1.53243 33.2146C0.776725 34.6551 1.33524 36.432 2.7799 37.1833L13.0517 42.5251M47.0681 47.166V36.246M19.9449 28.4152H16.7899C16.6853 28.4152 16.585 28.3737 16.5111 28.2997C16.4371 28.2257 16.3956 28.1254 16.3956 28.0208V24.8659C16.3956 24.7613 16.4371 24.661 16.5111 24.5871C16.585 24.5131 16.6853 24.4715 16.7899 24.4715H19.9449C20.0494 24.4715 20.1498 24.5131 20.2237 24.5871C20.2977 24.661 20.3392 24.7613 20.3392 24.8659V28.0208C20.3392 28.1254 20.2977 28.2257 20.2237 28.2997C20.1498 28.3737 20.0494 28.4152 19.9449 28.4152ZM27.8322 28.4152H24.6772C24.5726 28.4152 24.4723 28.3737 24.3984 28.2997C24.3244 28.2257 24.2829 28.1254 24.2829 28.0208V24.8659C24.2829 24.7613 24.3244 24.661 24.3984 24.5871C24.4723 24.5131 24.5726 24.4715 24.6772 24.4715H27.8322C27.9368 24.4715 28.0371 24.5131 28.111 24.5871C28.185 24.661 28.2265 24.7613 28.2265 24.8659V28.0208C28.2265 28.1254 28.185 28.2257 28.111 28.2997C28.0371 28.3737 27.9368 28.4152 27.8322 28.4152ZM19.9449 20.8208H16.7899C16.6853 20.8208 16.585 20.7793 16.5111 20.7053C16.4371 20.6313 16.3956 20.531 16.3956 20.4264V17.2715C16.3956 17.1669 16.4371 17.0666 16.5111 16.9927C16.585 16.9187 16.6853 16.8772 16.7899 16.8772H19.9449C20.0494 16.8772 20.1498 16.9187 20.2237 16.9927C20.2977 17.0666 20.3392 17.1669 20.3392 17.2715V20.4264C20.3392 20.531 20.2977 20.6313 20.2237 20.7053C20.1498 20.7793 20.0494 20.8208 19.9449 20.8208ZM27.8322 20.8208H24.6772C24.5726 20.8208 24.4723 20.7793 24.3984 20.7053C24.3244 20.6313 24.2829 20.531 24.2829 20.4264V17.2715C24.2829 17.1669 24.3244 17.0666 24.3984 16.9927C24.4723 16.9187 24.5726 16.8772 24.6772 16.8772H27.8322C27.9368 16.8772 28.0371 16.9187 28.111 16.9927C28.185 17.0666 28.2265 17.1669 28.2265 17.2715V20.4264C28.2265 20.531 28.185 20.6313 28.111 20.7053C28.0371 20.7793 27.9368 20.8208 27.8322 20.8208ZM19.9449 36.3025H16.7899C16.6853 36.3025 16.585 36.261 16.5111 36.187C16.4371 36.113 16.3956 36.0127 16.3956 35.9081V32.7532C16.3956 32.6486 16.4371 32.5483 16.5111 32.4744C16.585 32.4004 16.6853 32.3589 16.7899 32.3589H19.9449C20.0494 32.3589 20.1498 32.4004 20.2237 32.4744C20.2977 32.5483 20.3392 32.6486 20.3392 32.7532V35.9081C20.3392 36.0127 20.2977 36.113 20.2237 36.187C20.1498 36.261 20.0494 36.3025 19.9449 36.3025ZM27.8322 36.3025H24.6772C24.5726 36.3025 24.4723 36.261 24.3984 36.187C24.3244 36.113 24.2829 36.0127 24.2829 35.9081V32.7532C24.2829 32.6486 24.3244 32.5483 24.3984 32.4744C24.4723 32.4004 24.5726 32.3589 24.6772 32.3589H27.8322C27.9368 32.3589 28.0371 32.4004 28.111 32.4744C28.185 32.5483 28.2265 32.6486 28.2265 32.7532V35.9081C28.2265 36.0127 28.185 36.113 28.111 36.187C28.0371 36.261 27.9368 36.3025 27.8322 36.3025ZM18.1726 10.2292H30.0035V13.7785H18.1726V10.2292Z" stroke="#132A3A" stroke-miterlimit="10" stroke-linecap="round" stroke-linejoin="round"/>
<path d="M19.9448 28.4152H16.7899C16.6853 28.4152 16.585 28.3737 16.511 28.2997C16.4371 28.2257 16.3955 28.1254 16.3955 28.0208V24.8659C16.3955 24.7613 16.4371 24.661 16.511 24.5871C16.585 24.5131 16.6853 24.4715 16.7899 24.4715H19.9448C20.0494 24.4715 20.1497 24.5131 20.2237 24.5871C20.2976 24.661 20.3392 24.7613 20.3392 24.8659V28.0208C20.3392 28.1254 20.2976 28.2257 20.2237 28.2997C20.1497 28.3737 20.0494 28.4152 19.9448 28.4152ZM27.8321 28.4152H24.6772C24.5726 28.4152 24.4723 28.3737 24.3983 28.2997C24.3244 28.2257 24.2828 28.1254 24.2828 28.0208V24.8659C24.2828 24.7613 24.3244 24.661 24.3983 24.5871C24.4723 24.5131 24.5726 24.4715 24.6772 24.4715H27.8321C27.9367 24.4715 28.037 24.5131 28.111 24.5871C28.1849 24.661 28.2265 24.7613 28.2265 24.8659V28.0208C28.2265 28.1254 28.1849 28.2257 28.111 28.2997C28.037 28.3737 27.9367 28.4152 27.8321 28.4152ZM19.9448 20.8208H16.7899C16.6853 20.8208 16.585 20.7793 16.511 20.7053C16.4371 20.6313 16.3955 20.531 16.3955 20.4264V17.2715C16.3955 17.1669 16.4371 17.0666 16.511 16.9927C16.585 16.9187 16.6853 16.8772 16.7899 16.8772H19.9448C20.0494 16.8772 20.1497 16.9187 20.2237 16.9927C20.2976 17.0666 20.3392 17.1669 20.3392 17.2715V20.4264C20.3392 20.531 20.2976 20.6313 20.2237 20.7053C20.1497 20.7793 20.0494 20.8208 19.9448 20.8208ZM27.8321 20.8208H24.6772C24.5726 20.8208 24.4723 20.7793 24.3983 20.7053C24.3244 20.6313 24.2828 20.531 24.2828 20.4264V17.2715C24.2828 17.1669 24.3244 17.0666 24.3983 16.9927C24.4723 16.9187 24.5726 16.8772 24.6772 16.8772H27.8321C27.9367 16.8772 28.037 16.9187 28.111 16.9927C28.1849 17.0666 28.2265 17.1669 28.2265 17.2715V20.4264C28.2265 20.531 28.1849 20.6313 28.111 20.7053C28.037 20.7793 27.9367 20.8208 27.8321 20.8208ZM19.9448 36.3025H16.7899C16.6853 36.3025 16.585 36.261 16.511 36.187C16.4371 36.113 16.3955 36.0127 16.3955 35.9081V32.7532C16.3955 32.6486 16.4371 32.5483 16.511 32.4744C16.585 32.4004 16.6853 32.3589 16.7899 32.3589H19.9448C20.0494 32.3589 20.1497 32.4004 20.2237 32.4744C20.2976 32.5483 20.3392 32.6486 20.3392 32.7532V35.9081C20.3392 36.0127 20.2976 36.113 20.2237 36.187C20.1497 36.261 20.0494 36.3025 19.9448 36.3025ZM27.8321 36.3025H24.6772C24.5726 36.3025 24.4723 36.261 24.3983 36.187C24.3244 36.113 24.2828 36.0127 24.2828 35.9081V32.7532C24.2828 32.6486 24.3244 32.5483 24.3983 32.4744C24.4723 32.4004 24.5726 32.3589 24.6772 32.3589H27.8321C27.9367 32.3589 28.037 32.4004 28.111 32.4744C28.1849 32.5483 28.2265 32.6486 28.2265 32.7532V35.9081C28.2265 36.0127 28.1849 36.113 28.111 36.187C28.037 36.261 27.9367 36.3025 27.8321 36.3025Z" stroke="#45B14A" stroke-miterlimit="10" stroke-linecap="round" stroke-linejoin="round"/>
<path d="M37.4356 48.0119L24.1174 49.9684C23.7206 50.0268 23.3161 50.0041 22.9283 49.9015C22.5405 49.7989 22.1777 49.6186 21.8617 49.3716L7.08263 37.8128C5.79996 36.8097 5.57704 34.9611 6.58475 33.6841C7.59255 32.4072 9.44912 32.1852 10.7319 33.1884L22.3338 42.2624C22.3338 42.2624 29.6156 37.3302 34.641 36.9433C39.1891 36.5931 42.6445 38.8933 43.2598 42.8652" stroke="#132A3A" stroke-miterlimit="10" stroke-linecap="round" stroke-linejoin="round"/>
<path d="M31.4497 33.5409C33.8273 32.4721 38.4633 31.3052 41.0956 35.904L50.1955 35.9041V47.5079H40.8667" stroke="#132A3A" stroke-miterlimit="10" stroke-linecap="round" stroke-linejoin="round"/>
</svg>
