<svg width="65" height="64" viewBox="0 0 65 64" fill="none" xmlns="http://www.w3.org/2000/svg">
<path d="M64.0393 40.9988C63.7725 41.9236 63.1856 42.6705 62.3498 43.1507L56.6233 46.3518V52.8964C56.6233 54.8527 55.0227 56.4533 53.0664 56.4533H46.5041L43.3207 62.1798C42.8405 63.0156 42.0936 63.6025 41.1688 63.8693C40.2618 64.1183 39.3015 64.0116 38.4656 63.5492L32.17 60.0279L25.8744 63.5492C25.3231 63.8515 24.7362 63.9938 24.1315 63.9938C23.8114 63.9938 23.4913 63.9582 23.1712 63.8693C22.2464 63.6025 21.4995 63.0156 21.0193 62.1798L17.8359 56.4533H11.2736C9.31731 56.4533 7.71673 54.8527 7.71673 52.8964V46.3518L1.99022 43.1507C1.15437 42.6705 0.567487 41.9236 0.300724 40.9988C0.0517455 40.0918 0.158451 39.1315 0.62084 38.2956L4.14211 32L0.62084 25.7044C-0.339506 23.9793 0.282941 21.8097 1.99022 20.8493L7.71673 17.6482V11.1036C7.71673 9.1473 9.31731 7.54672 11.2736 7.54672H17.8359L21.0193 1.82021C21.4995 0.984356 22.2464 0.397477 23.1712 0.130714C24.0782 -0.118265 25.0385 -0.0115593 25.8744 0.45083L32.17 3.9721L38.4656 0.45083C39.3015 -0.0115593 40.2618 -0.118265 41.1688 0.130714C42.0936 0.397477 42.8405 0.984356 43.3207 1.82021L46.5041 7.54672H53.0664C55.0227 7.54672 56.6233 9.1473 56.6233 11.1036V17.6482L62.3498 20.8493C64.0571 21.8097 64.6795 23.9793 63.7192 25.7044L60.1979 32L63.7192 38.2956C64.1816 39.1315 64.2883 40.0918 64.0393 40.9988Z" fill="url(#paint0_linear_338_4962)"/>
<path d="M28.6132 42.671C28.3796 42.6712 28.1483 42.6253 27.9325 42.5359C27.7167 42.4465 27.5207 42.3153 27.3558 42.1499L18.4637 33.2578C18.2938 33.0938 18.1584 32.8975 18.0652 32.6806C17.972 32.4636 17.9229 32.2302 17.9208 31.9941C17.9188 31.7579 17.9638 31.5238 18.0532 31.3052C18.1426 31.0866 18.2747 30.8881 18.4417 30.7211C18.6086 30.5541 18.8072 30.4221 19.0258 30.3326C19.2443 30.2432 19.4785 30.1982 19.7147 30.2003C19.9508 30.2023 20.1842 30.2514 20.4011 30.3446C20.6181 30.4378 20.8143 30.5733 20.9784 30.7431L28.6132 38.3779L45.14 21.851C45.3041 21.6812 45.5003 21.5457 45.7173 21.4525C45.9343 21.3593 46.1676 21.3102 46.4038 21.3082C46.6399 21.3061 46.8741 21.3511 47.0926 21.4405C47.3112 21.53 47.5098 21.662 47.6767 21.829C47.8437 21.996 47.9758 22.1945 48.0652 22.4131C48.1546 22.6317 48.1996 22.8658 48.1976 23.102C48.1955 23.3381 48.1465 23.5715 48.0532 23.7885C47.96 24.0054 47.8246 24.2017 47.6547 24.3657L29.8705 42.1499C29.7056 42.3153 29.5096 42.4465 29.2938 42.5359C29.078 42.6253 28.8467 42.6712 28.6132 42.671Z" fill="white"/>
<defs>
<linearGradient id="paint0_linear_338_4962" x1="32.17" y1="64.0009" x2="32.17" y2="0.000892639" gradientUnits="userSpaceOnUse">
<stop stop-color="#0064E1"/>
<stop offset="0.994" stop-color="#26B7FF"/>
</linearGradient>
</defs>
</svg>
