<svg width="52" height="51" viewBox="0 0 52 51" fill="none" xmlns="http://www.w3.org/2000/svg">
<path d="M14.1757 40.837L16.0489 31.7829C16.3944 30.1134 17.8648 28.9159 19.5699 28.9159H25.028M30.2897 28.9156H35.7482C37.4527 28.9156 38.9235 30.1134 39.2684 31.783L39.747 34.0954" stroke="#45B14A" stroke-miterlimit="10" stroke-linecap="round" stroke-linejoin="round"/>
<path d="M30.2898 26.4088V29.3269C30.2898 30.7797 29.1116 31.9578 27.6589 31.9578C26.2061 31.9578 25.028 30.7797 25.028 29.3269V26.4088" stroke="#45B14A" stroke-miterlimit="10" stroke-linecap="round" stroke-linejoin="round"/>
<path d="M35.0583 19.4092C35.0583 23.4958 31.7455 26.8085 27.6589 26.8085C23.5724 26.8085 20.2596 23.4958 20.2596 19.4092M35.0583 19.4092H35.7982C37.2512 19.4092 38.429 18.2313 38.4291 16.7784C38.4291 15.3254 37.2512 14.1475 35.7982 14.1475H35.0583V19.4092ZM20.2596 19.4092H19.5196C18.0666 19.4092 16.8888 18.2313 16.8887 16.7784C16.8887 15.3254 18.0666 14.1475 19.5196 14.1475H20.2595L20.2596 19.4092ZM47.3219 36.3427H50.6927V50.5H47.3219V36.3427Z" stroke="#45B14A" stroke-miterlimit="10" stroke-linecap="round" stroke-linejoin="round"/>
<path d="M29.3722 36.5673H31.7837C32.0974 35.1313 33.3721 34.0958 34.8559 34.0958H40.5375C42.0747 34.0958 43.3872 35.207 43.6397 36.7241L43.9511 38.5895H47.3225M25.4792 36.5673H22.8164C21.3203 36.5673 20.0601 37.7586 20.0556 39.2557C20.0535 39.8233 20.231 40.377 20.5628 40.8374H12.6266L5.94392 34.1536C5.4178 33.6264 4.72707 33.3639 4.03633 33.3639C3.34671 33.3639 2.65708 33.6264 2.12985 34.1536C1.07651 35.207 1.07651 36.9143 2.12985 37.9677L9.22965 45.0675C9.9883 45.8251 10.9551 46.34 12.0071 46.5468L30.9072 50.2486C31.7603 50.4154 32.6291 50.4999 33.4989 50.4999H47.3225" stroke="#276E91" stroke-miterlimit="10" stroke-linecap="round" stroke-linejoin="round"/>
<path d="M20.5637 40.837C20.6481 40.9561 20.7425 41.0677 20.8458 41.1707C21.3345 41.6583 22.0087 41.9606 22.7525 41.9606H32.1908L33.3144 43.0842M37.2907 8.22157C37.4431 8.91119 37.5243 9.62863 37.5243 10.365V13.0234C37.5243 13.644 37.0215 14.1479 36.4008 14.1479H18.9166C18.296 14.1479 17.7932 13.644 17.7932 13.0234V10.365C17.7932 7.64095 18.8977 5.17499 20.683 3.38975C22.4682 1.60451 24.9342 0.5 27.6593 0.5C30.9895 0.5 33.9349 2.15065 35.7201 4.6789M32.3803 11.0494V14.1473M29.0096 12.1729V14.1473M23.3915 12.7347V14.1473" stroke="#276E91" stroke-miterlimit="10" stroke-linecap="round" stroke-linejoin="round"/>
</svg>
