<svg width="251" height="251" viewBox="0 0 251 251" fill="none" xmlns="http://www.w3.org/2000/svg">
<path d="M62.75 104.583V83.6666C62.75 49.0495 73.2083 20.9166 125.5 20.9166C177.792 20.9166 188.25 49.0495 188.25 83.6666V104.583" stroke="white" stroke-width="2" stroke-linecap="round" stroke-linejoin="round"/>
<path d="M125.5 193.479C139.94 193.479 151.646 181.773 151.646 167.333C151.646 152.893 139.94 141.188 125.5 141.188C111.06 141.188 99.3542 152.893 99.3542 167.333C99.3542 181.773 111.06 193.479 125.5 193.479Z" stroke="white" stroke-width="2" stroke-linecap="round" stroke-linejoin="round"/>
<path d="M177.792 230.083H73.2084C31.3751 230.083 20.9167 219.625 20.9167 177.792V156.875C20.9167 115.042 31.3751 104.583 73.2084 104.583H177.792C219.625 104.583 230.083 115.042 230.083 156.875V177.792C230.083 219.625 219.625 230.083 177.792 230.083Z" stroke="white" stroke-width="2" stroke-linecap="round" stroke-linejoin="round"/>
</svg>
