<svg width="743" height="223" viewBox="0 0 743 223" fill="none" xmlns="http://www.w3.org/2000/svg">
<path d="M28.3171 114.078C28.3171 168.539 72.4017 212.688 126.783 212.688C152.925 212.688 176.712 202.479 194.333 185.812C173.944 208.64 144.314 223 111.338 223C49.851 223 0 173.076 0 111.5C0 49.9236 49.851 0 111.338 0C157.52 0 197.138 28.165 214 68.2793C197.537 36.8788 164.651 15.4682 126.783 15.4682C72.4017 15.4682 28.3171 59.6171 28.3171 114.078Z" fill="url(#paint0_linear_82_17)"/>
<path d="M214 68C197.519 36.728 164.597 15.4049 126.687 15.4049C88.7781 15.4049 57.3502 35.778 40.5216 65.8947L21 45.8554C41.2561 18.0623 74.1272 0 111.225 0C157.458 0 197.12 28.0498 214 68Z" fill="url(#paint1_linear_82_17)"/>
<path d="M177 175.501C177 175.501 139.544 189.986 122.015 148.298C104.485 190.059 67 175.559 67 175.559C81.5349 160.942 75.7209 160.942 81.5349 137.554C87.3488 114.167 112.247 115.059 112.247 115.059C112.523 115.146 112.799 115.249 113.061 115.351C110.372 117.514 94.8634 131.05 97.5233 155.095C97.5233 155.095 109.936 135.683 121.331 125.232L121.666 124.925L122.015 124.589L122.305 124.837C122.669 125.174 123.032 125.51 123.395 125.861C134.587 136.443 146.477 155.037 146.477 155.037C149.137 130.991 133.628 117.456 130.939 115.292C131.201 115.19 131.477 115.088 131.753 115C131.753 115 156.651 114.108 162.465 137.496C168.279 160.883 162.465 160.883 177 175.501Z" fill="url(#paint2_linear_82_17)"/>
<path d="M183 84.1758C167.877 100.69 146.403 111 122.58 111C98.7564 111 77.1235 100.614 62 84C62 84 128.269 99.5721 183 84.1758Z" fill="url(#paint3_linear_82_17)"/>
<path d="M138 91.1215C127.085 103.112 115.355 108.058 108.84 110C108.012 109.832 107.211 109.663 106.397 109.469C89.0978 105.416 73.7428 96.3914 62 84C62 84 95.0612 91.4582 134.716 91.1733C135.806 91.1733 136.897 91.1604 138 91.1215Z" fill="url(#paint4_linear_82_17)"/>
<path d="M122.5 86C133.27 86 142 77.2696 142 66.5C142 55.7304 133.27 47 122.5 47C111.73 47 103 55.7304 103 66.5C103 77.2696 111.73 86 122.5 86Z" fill="url(#paint5_linear_82_17)"/>
<path d="M738.121 130.744L739.732 132.893C731.757 140.477 724.921 144.27 719.225 144.27C716.913 144.27 715.139 143.488 713.902 141.926C712.698 140.363 712.096 137.857 712.096 134.406C712.096 127.44 714.212 120.507 718.443 113.605C723.196 105.76 728.876 101.838 735.484 101.838C737.796 101.838 739.553 102.424 740.758 103.596C741.995 104.735 742.613 106.314 742.613 108.332C742.613 110.448 741.881 112.531 740.416 114.582C738.951 116.633 736.331 118.765 732.555 120.979C730.667 122.053 726.63 123.99 720.445 126.789C720.152 128.547 720.006 130.223 720.006 131.818C720.006 134.13 720.364 135.741 721.08 136.652C721.829 137.564 722.903 138.02 724.303 138.02C725.637 138.02 727.102 137.645 728.697 136.896C730.846 135.887 733.987 133.837 738.121 130.744ZM721.031 123.664C726.272 121.32 730.211 118.798 732.848 116.096C734.638 114.208 735.533 112.336 735.533 110.48C735.533 109.081 735.159 107.974 734.41 107.16C733.694 106.314 732.75 105.891 731.578 105.891C730.374 105.891 729.202 106.346 728.062 107.258C726.533 108.462 725.247 110.285 724.205 112.727C722.708 116.307 721.65 119.953 721.031 123.664Z" fill="white"/>
<path d="M705.357 101.594L709.312 100.715C706.936 108.332 704.755 115.965 702.77 123.615C701.337 129.084 700.344 133.641 699.791 137.287C699.498 139.11 699.335 141.421 699.303 144.221C699.238 148.908 698.717 152.684 697.74 155.549C696.373 159.553 693.818 162.775 690.074 165.217C686.363 167.658 681.952 168.879 676.842 168.879C672.447 168.879 668.98 167.837 666.441 165.754C663.935 163.703 662.682 161.343 662.682 158.674C662.682 156.037 663.691 153.579 665.709 151.301C667.206 149.576 670.331 147.492 675.084 145.051C677.493 143.781 679.755 142.479 681.871 141.145C679.462 142.382 677.59 143 676.256 143C675.051 143 673.977 142.447 673.033 141.34C672.122 140.201 671.666 138.703 671.666 136.848C671.666 130.858 673.44 124.917 676.988 119.025C680.569 113.101 684.866 108.658 689.879 105.695C692.971 103.872 696.845 102.961 701.5 102.961C702.411 102.961 703.535 102.993 704.869 103.059L705.357 101.594ZM699.889 108.82C698.326 108.527 696.943 108.381 695.738 108.381C692.646 108.381 689.993 109.195 687.779 110.822C685.566 112.45 683.678 115.184 682.115 119.025C679.934 124.462 678.844 129.035 678.844 132.746C678.844 134.276 679.267 135.562 680.113 136.604C680.992 137.645 681.969 138.166 683.043 138.166C684.345 138.166 685.956 137.548 687.877 136.311C689.798 135.041 691.36 133.462 692.564 131.574C693.801 129.686 695.055 126.431 696.324 121.809L699.889 108.82ZM693.248 135.432C691.035 137.417 686.77 140.591 680.455 144.953C674.889 148.729 671.471 151.447 670.201 153.107C668.932 154.8 668.297 156.59 668.297 158.479C668.297 160.334 669.111 161.994 670.738 163.459C672.398 164.956 674.4 165.705 676.744 165.705C678.958 165.705 681.106 165.152 683.189 164.045C685.273 162.971 687.079 161.392 688.609 159.309C690.172 157.258 691.246 154.93 691.832 152.326C692.418 149.722 692.727 146.271 692.76 141.975C692.792 141.031 692.955 138.85 693.248 135.432Z" fill="white"/>
<path d="M627.965 113.361L626.305 111.652C630.471 107.681 633.792 105.044 636.266 103.742C638.74 102.44 640.855 101.789 642.613 101.789C643.297 101.789 643.834 101.936 644.225 102.229C644.615 102.521 644.811 102.863 644.811 103.254C644.811 103.547 644.729 104.068 644.566 104.816L642.369 114.631C645.689 110.952 649.856 107.518 654.869 104.328C657.538 102.668 659.736 101.838 661.461 101.838C662.73 101.838 663.723 102.245 664.439 103.059C665.156 103.872 665.514 105.044 665.514 106.574C665.514 107.583 665.367 108.723 665.074 109.992C664.553 112.108 663.186 116.714 660.973 123.811C658.889 130.451 657.848 134.862 657.848 137.043C657.848 137.694 657.945 138.182 658.141 138.508C658.336 138.833 658.613 138.996 658.971 138.996C659.915 138.996 661.396 138.085 663.414 136.262C664.846 134.96 666.279 133.755 667.711 132.648L668.932 134.406C665.937 137.727 662.828 140.396 659.605 142.414C657.555 143.716 655.862 144.367 654.527 144.367C653.29 144.367 652.33 143.911 651.646 143C650.963 142.121 650.621 140.673 650.621 138.654C650.621 135.757 652.428 128.547 656.041 117.023C657.148 112.922 657.701 110.529 657.701 109.846C657.701 108.837 657.099 108.332 655.895 108.332C654.592 108.332 652.916 109.016 650.865 110.383C647.805 112.401 645.25 114.777 643.199 117.512C641.897 119.27 640.807 122.069 639.928 125.91L635.973 142.951H628.697C630.064 138.068 631.253 133.397 632.262 128.938L636.607 110.383C636.77 109.634 636.852 109.097 636.852 108.771C636.852 107.893 636.526 107.453 635.875 107.453C635.354 107.453 634.605 107.795 633.629 108.479C631.611 109.813 629.723 111.441 627.965 113.361Z" fill="white"/>
<path d="M617.809 101.105L621.031 100.422L617.369 112.775C615.904 117.691 614.521 123.355 613.219 129.768C612.503 133.251 612.145 135.497 612.145 136.506C612.145 137.515 612.551 138.02 613.365 138.02C613.886 138.02 614.716 137.678 615.855 136.994C617.874 135.79 619.811 134.292 621.666 132.502L623.229 134.406C619.518 137.792 617.141 139.842 616.1 140.559C614.016 141.991 612.031 143.049 610.143 143.732C608.906 144.188 607.701 144.416 606.529 144.416C605.683 144.416 605.048 144.221 604.625 143.83C604.202 143.439 603.99 142.87 603.99 142.121C603.99 141.633 604.12 140.965 604.381 140.119L606.334 133.479C603.535 136.831 600.198 139.712 596.324 142.121C593.948 143.618 591.767 144.367 589.781 144.367C587.893 144.367 586.445 143.7 585.436 142.365C584.068 140.575 583.385 138.231 583.385 135.334C583.385 131.883 584.296 128.042 586.119 123.811C587.975 119.579 590.449 115.738 593.541 112.287C596.633 108.837 599.889 106.298 603.307 104.67C605.943 103.433 609.329 102.814 613.463 102.814C614.505 102.814 615.562 102.88 616.637 103.01L617.809 101.105ZM611.754 108.576C609.996 108.218 608.515 108.039 607.311 108.039C604.381 108.039 601.826 108.853 599.645 110.48C597.464 112.076 595.429 114.973 593.541 119.172C591.686 123.339 590.758 127.505 590.758 131.672C590.758 133.885 591.132 135.48 591.881 136.457C592.63 137.434 593.606 137.922 594.811 137.922C597.057 137.922 599.465 136.717 602.037 134.309C604.609 131.867 606.497 128.368 607.701 123.811L611.754 108.576Z" fill="white"/>
<path d="M579.674 132.648L580.943 134.455C577.949 137.775 574.872 140.412 571.715 142.365C569.566 143.7 567.792 144.367 566.393 144.367C565.253 144.367 564.326 143.911 563.609 143C562.926 142.089 562.584 140.673 562.584 138.752C562.584 137.45 562.844 135.562 563.365 133.088C563.919 130.581 565.449 125.227 567.955 117.023C569.062 112.987 569.615 110.627 569.615 109.943C569.615 108.837 569.062 108.283 567.955 108.283C566.588 108.283 564.879 108.967 562.828 110.334C559.964 112.222 557.424 114.631 555.211 117.561C553.811 119.449 552.688 122.248 551.842 125.959L547.936 142.951H540.66C542.223 137.255 543.427 132.6 544.273 128.986L551.451 97.6387C552.753 91.877 554.462 87.4499 556.578 84.3574C558.727 81.2324 561.51 78.7422 564.928 76.8867C568.378 75.0312 571.78 74.1035 575.133 74.1035C576.533 74.1035 577.639 74.4453 578.453 75.1289C579.267 75.8125 579.674 76.6751 579.674 77.7168C579.674 78.5957 579.267 79.377 578.453 80.0605C577.672 80.7116 576.598 81.0371 575.23 81.0371C574.449 81.0371 573.44 80.9557 572.203 80.793C569.404 80.4023 567.467 80.207 566.393 80.207C564.895 80.207 563.674 80.8092 562.73 82.0137C561.786 83.2181 560.81 86.0501 559.801 90.5098L554.332 114.631C558.206 110.562 562.421 107.128 566.979 104.328C569.648 102.668 571.796 101.838 573.424 101.838C574.693 101.838 575.686 102.229 576.402 103.01C577.118 103.758 577.477 104.816 577.477 106.184C577.477 107.29 577.346 108.397 577.086 109.504C576.663 111.424 575.67 114.908 574.107 119.953C571.992 126.919 570.738 131.249 570.348 132.941C569.99 134.634 569.811 136.148 569.811 137.482C569.811 138.003 569.892 138.394 570.055 138.654C570.25 138.915 570.527 139.045 570.885 139.045C571.666 139.045 573.131 138.117 575.279 136.262C576.484 135.253 577.949 134.048 579.674 132.648Z" fill="white"/>
<path d="M533.287 132.404L534.312 135.236C526.565 141.324 520.022 144.367 514.684 144.367C511.852 144.367 509.785 143.358 508.482 141.34C507.213 139.322 506.578 136.766 506.578 133.674C506.578 128.531 507.945 123.241 510.68 117.805C513.414 112.368 516.734 108.202 520.641 105.305C523.701 103.059 527.151 101.936 530.992 101.936C533.401 101.936 535.224 102.391 536.461 103.303C537.698 104.214 538.316 105.321 538.316 106.623C538.316 107.632 537.991 108.462 537.34 109.113C536.689 109.732 535.777 110.041 534.605 110.041C533.466 110.041 532.001 109.52 530.211 108.479C528.355 107.372 526.809 106.818 525.572 106.818C523.977 106.818 522.382 107.551 520.787 109.016C519.225 110.448 517.727 113.247 516.295 117.414C514.863 121.581 514.146 125.764 514.146 129.963C514.146 133.055 514.749 135.448 515.953 137.141C516.832 138.443 518.069 139.094 519.664 139.094C523.473 139.094 528.014 136.864 533.287 132.404Z" fill="white"/>
<path d="M469.078 111.799L467.662 109.846C471.113 106.916 474.124 104.768 476.695 103.4C478.421 102.456 479.706 101.984 480.553 101.984C481.79 101.984 482.783 102.603 483.531 103.84C484.605 105.598 485.663 109.439 486.705 115.363C490.742 109.439 494.306 105.354 497.398 103.107C500.491 100.861 503.079 99.7383 505.162 99.7383C506.236 99.7383 507.099 100.048 507.75 100.666C508.401 101.285 508.727 102.049 508.727 102.961C508.727 103.97 508.271 104.8 507.359 105.451C506.708 105.907 504.934 106.232 502.037 106.428C499.661 106.558 497.577 107.355 495.787 108.82C492.923 111.197 490.156 114.663 487.486 119.221L490.611 133.82C491.946 140.233 493.346 144.986 494.811 148.078C496.275 151.171 498.066 153.547 500.182 155.207C501.386 156.151 502.721 156.623 504.186 156.623C506.269 156.623 507.783 155.354 508.727 152.814C509.345 151.154 510.338 150.324 511.705 150.324C512.356 150.324 512.926 150.585 513.414 151.105C513.902 151.659 514.146 152.342 514.146 153.156C514.146 154.751 513.235 156.216 511.412 157.551C509.622 158.885 507.311 159.553 504.479 159.553C501.354 159.553 498.359 158.56 495.494 156.574C492.662 154.621 490.204 151.464 488.121 147.102C486.07 142.772 484.166 135.871 482.408 126.398C481.757 127.277 480.715 128.742 479.283 130.793C475.182 136.587 472.008 140.314 469.762 141.975C467.516 143.635 465.367 144.465 463.316 144.465C461.884 144.465 460.696 144.058 459.752 143.244C458.808 142.463 458.336 141.519 458.336 140.412C458.336 139.501 458.645 138.719 459.264 138.068C459.882 137.385 460.598 137.043 461.412 137.043C462.258 137.043 463.121 137.596 464 138.703C464.749 139.68 465.465 140.168 466.148 140.168C466.604 140.168 467.109 140.021 467.662 139.729C468.476 139.273 469.566 138.296 470.934 136.799C472.887 134.683 474.384 132.86 475.426 131.33L481.48 122.395L479.479 113.264C478.958 110.79 478.421 109.211 477.867 108.527C477.346 107.811 476.76 107.453 476.109 107.453C475.621 107.453 474.938 107.714 474.059 108.234C472.171 109.309 470.51 110.497 469.078 111.799Z" fill="white"/>
<path d="M458.043 96.1738H455.455C455.715 94.5137 455.846 93.1953 455.846 92.2188C455.846 90.9167 455.292 90.0703 454.186 89.6797C453.111 89.2565 449.01 89.0449 441.881 89.0449L434.752 89.0938L429.332 110.676H439.439C442.63 110.676 444.583 110.448 445.299 109.992C446.048 109.504 446.585 108.316 446.91 106.428H449.693C448.652 110.367 447.724 114.696 446.91 119.416H444.42C444.583 117.886 444.664 116.698 444.664 115.852C444.664 115.493 444.436 115.054 443.98 114.533C443.753 114.273 443.329 114.094 442.711 113.996C441.832 113.833 440.465 113.752 438.609 113.752H428.6C425.702 124.82 422.691 133.495 419.566 139.777C422.594 138.833 425.279 138.361 427.623 138.361C431.529 138.361 436.314 138.98 441.979 140.217C444.973 140.9 447.008 141.242 448.082 141.242C449.514 141.242 450.67 140.884 451.549 140.168C452.428 139.452 452.867 138.638 452.867 137.727C452.867 137.206 452.656 136.359 452.232 135.188C451.972 134.374 451.842 133.609 451.842 132.893C451.842 132.144 452.135 131.477 452.721 130.891C453.339 130.305 454.072 130.012 454.918 130.012C455.927 130.012 456.757 130.402 457.408 131.184C458.092 131.965 458.434 133.007 458.434 134.309C458.434 137.076 457.213 139.501 454.771 141.584C452.363 143.667 449.173 144.709 445.201 144.709C443.118 144.709 440.481 144.53 437.291 144.172C430.292 143.391 424.954 143 421.275 143C416.458 143 410.826 143.391 404.381 144.172L405.162 141.486C409.003 140.412 411.266 139.631 411.949 139.143C412.633 138.622 413.202 137.873 413.658 136.896C415.221 133.804 417.239 127.603 419.713 118.293C422.219 108.983 424.758 99.1523 427.33 88.8008C423.424 88.8008 419.729 89.7285 416.246 91.584C412.763 93.4395 410.045 95.8646 408.092 98.8594C406.139 101.822 405.162 104.947 405.162 108.234C405.162 109.634 405.292 110.855 405.553 111.896C405.846 112.938 406.48 114.403 407.457 116.291C408.076 117.43 408.385 118.358 408.385 119.074C408.385 119.79 408.076 120.425 407.457 120.979C406.871 121.532 406.139 121.809 405.26 121.809C403.99 121.809 402.981 121.174 402.232 119.904C401.126 118.049 400.572 115.526 400.572 112.336C400.572 105.5 403.16 99.3639 408.336 93.9277C413.512 88.4915 421.048 85.7734 430.943 85.7734H447.691C453.486 85.7734 457.766 85.3991 460.533 84.6504C459.231 90.054 458.401 93.8952 458.043 96.1738Z" fill="white"/>
<path d="M372.105 130.744L373.717 132.893C365.742 140.477 358.906 144.27 353.209 144.27C350.898 144.27 349.124 143.488 347.887 141.926C346.682 140.363 346.08 137.857 346.08 134.406C346.08 127.44 348.196 120.507 352.428 113.605C357.18 105.76 362.861 101.838 369.469 101.838C371.78 101.838 373.538 102.424 374.742 103.596C375.979 104.735 376.598 106.314 376.598 108.332C376.598 110.448 375.865 112.531 374.4 114.582C372.936 116.633 370.315 118.765 366.539 120.979C364.651 122.053 360.615 123.99 354.43 126.789C354.137 128.547 353.99 130.223 353.99 131.818C353.99 134.13 354.348 135.741 355.064 136.652C355.813 137.564 356.887 138.02 358.287 138.02C359.622 138.02 361.087 137.645 362.682 136.896C364.83 135.887 367.971 133.837 372.105 130.744ZM355.016 123.664C360.257 121.32 364.195 118.798 366.832 116.096C368.622 114.208 369.518 112.336 369.518 110.48C369.518 109.081 369.143 107.974 368.395 107.16C367.678 106.314 366.734 105.891 365.562 105.891C364.358 105.891 363.186 106.346 362.047 107.258C360.517 108.462 359.231 110.285 358.189 112.727C356.692 116.307 355.634 119.953 355.016 123.664Z" fill="white"/>
<path d="M325.572 143H318.297L321.715 129.865C323.375 123.42 324.824 117.3 326.061 111.506C326.354 110.074 326.5 109.178 326.5 108.82C326.5 108.039 326.142 107.648 325.426 107.648C324.938 107.648 324.189 107.99 323.18 108.674C322.171 109.325 320.348 110.969 317.711 113.605L316.197 111.896C319.322 108.544 322.431 106.037 325.523 104.377C328.648 102.684 331.041 101.838 332.701 101.838C333.287 101.838 333.743 101.984 334.068 102.277C334.426 102.538 334.605 102.88 334.605 103.303C334.605 103.726 334.394 104.849 333.971 106.672L331.871 115.412C335.159 110.236 338.87 105.809 343.004 102.131C344.99 100.373 346.65 99.4941 347.984 99.4941C348.961 99.4941 349.775 99.8197 350.426 100.471C351.077 101.089 351.402 101.822 351.402 102.668C351.402 103.547 351.077 104.296 350.426 104.914C349.807 105.533 348.229 106.265 345.689 107.111C343.281 107.925 341.311 108.902 339.781 110.041C338.284 111.18 336.624 112.922 334.801 115.266C333.01 117.609 331.757 119.66 331.041 121.418C330.325 123.143 329.234 127.18 327.77 133.527L325.572 143Z" fill="white"/>
<path d="M307.848 101.105L311.07 100.422L307.408 112.775C305.943 117.691 304.56 123.355 303.258 129.768C302.542 133.251 302.184 135.497 302.184 136.506C302.184 137.515 302.59 138.02 303.404 138.02C303.925 138.02 304.755 137.678 305.895 136.994C307.913 135.79 309.85 134.292 311.705 132.502L313.268 134.406C309.557 137.792 307.18 139.842 306.139 140.559C304.055 141.991 302.07 143.049 300.182 143.732C298.945 144.188 297.74 144.416 296.568 144.416C295.722 144.416 295.087 144.221 294.664 143.83C294.241 143.439 294.029 142.87 294.029 142.121C294.029 141.633 294.16 140.965 294.42 140.119L296.373 133.479C293.574 136.831 290.237 139.712 286.363 142.121C283.987 143.618 281.806 144.367 279.82 144.367C277.932 144.367 276.484 143.7 275.475 142.365C274.107 140.575 273.424 138.231 273.424 135.334C273.424 131.883 274.335 128.042 276.158 123.811C278.014 119.579 280.488 115.738 283.58 112.287C286.673 108.837 289.928 106.298 293.346 104.67C295.982 103.433 299.368 102.814 303.502 102.814C304.544 102.814 305.602 102.88 306.676 103.01L307.848 101.105ZM301.793 108.576C300.035 108.218 298.554 108.039 297.35 108.039C294.42 108.039 291.865 108.853 289.684 110.48C287.503 112.076 285.468 114.973 283.58 119.172C281.725 123.339 280.797 127.505 280.797 131.672C280.797 133.885 281.171 135.48 281.92 136.457C282.669 137.434 283.645 137.922 284.85 137.922C287.096 137.922 289.505 136.717 292.076 134.309C294.648 131.867 296.536 128.368 297.74 123.811L301.793 108.576Z" fill="white"/>
<path d="M272.203 105.695H269.566C269.729 103.156 269.811 101.122 269.811 99.5918C269.811 95.002 268.85 91.8118 266.93 90.0215C265.042 88.1986 262.649 87.2871 259.752 87.2871C255.878 87.2871 251.858 88.8659 247.691 92.0234C243.525 95.1484 239.944 100.048 236.949 106.721C233.954 113.361 232.457 120.197 232.457 127.229C232.457 134.032 233.84 139.257 236.607 142.902C239.407 146.516 242.906 148.322 247.105 148.322C252.802 148.322 258.027 144.904 262.779 138.068C263.268 137.385 263.772 137.043 264.293 137.043C264.716 137.043 265.074 137.189 265.367 137.482C265.66 137.743 265.807 138.052 265.807 138.41C265.807 139.289 264.716 141.014 262.535 143.586C260.387 146.158 257.669 148.29 254.381 149.982C251.093 151.708 247.854 152.57 244.664 152.57C240.823 152.57 237.258 151.561 233.971 149.543C230.683 147.557 228.128 144.709 226.305 140.998C224.482 137.287 223.57 132.876 223.57 127.766C223.57 120.637 225.426 113.54 229.137 106.477C232.88 99.4128 237.551 93.9603 243.15 90.1191C248.749 86.278 254.218 84.3574 259.557 84.3574C261.477 84.3574 263.382 84.569 265.27 84.9922C266.083 85.1875 269.436 86.3105 275.328 88.3613C273.473 93.9603 272.431 99.7383 272.203 105.695Z" fill="white"/>
<defs>
<linearGradient id="paint0_linear_82_17" x1="14.5" y1="180" x2="141.5" y2="112" gradientUnits="userSpaceOnUse">
<stop stop-color="#9EDAFD"/>
<stop offset="0.447666" stop-color="#5ABDF8"/>
<stop offset="0.819915" stop-color="#7FCDFB"/>
</linearGradient>
<linearGradient id="paint1_linear_82_17" x1="21" y1="34" x2="214" y2="34" gradientUnits="userSpaceOnUse">
<stop stop-color="#D9F0FE"/>
<stop offset="0.77824" stop-color="#76C9FA"/>
<stop offset="1" stop-color="#5ABDF8"/>
</linearGradient>
<linearGradient id="paint2_linear_82_17" x1="122" y1="112" x2="122" y2="178" gradientUnits="userSpaceOnUse">
<stop stop-color="#D3EB9E"/>
<stop offset="0.22176" stop-color="#D0EA99"/>
<stop offset="1" stop-color="#52FA91"/>
</linearGradient>
<linearGradient id="paint3_linear_82_17" x1="62" y1="97.5" x2="183" y2="97.5" gradientUnits="userSpaceOnUse">
<stop stop-color="#D3EB9E"/>
<stop offset="0.22176" stop-color="#D0EA99"/>
<stop offset="1" stop-color="#52FA91"/>
</linearGradient>
<linearGradient id="paint4_linear_82_17" x1="58" y1="84" x2="128.5" y2="103" gradientUnits="userSpaceOnUse">
<stop stop-color="#52FA91"/>
<stop offset="0.77824" stop-color="#D0EA99"/>
<stop offset="1" stop-color="#D9EC9B"/>
</linearGradient>
<linearGradient id="paint5_linear_82_17" x1="103" y1="66.5" x2="142" y2="66.5" gradientUnits="userSpaceOnUse">
<stop stop-color="#D3EB9E"/>
<stop offset="0.22176" stop-color="#D0EA99"/>
<stop offset="1" stop-color="#52FA91"/>
</linearGradient>
</defs>
</svg>
