<svg width="55" height="51" viewBox="0 0 55 51" fill="none" xmlns="http://www.w3.org/2000/svg">
<path d="M26.6224 9.75746V15.0917C26.6224 20.1843 22.4466 24.3508 17.3428 24.3508C12.2389 24.3508 8.06317 20.1843 8.06317 15.0917V9.75746C8.06317 4.72171 12.1492 0.588009 17.1751 0.50143C22.3448 0.411785 26.6224 4.59929 26.6224 9.75746Z" stroke="#276E91" stroke-miterlimit="10" stroke-linecap="round" stroke-linejoin="round"/>
<path d="M12.8946 26.8538L17.3068 29.1596L11.2811 33.8906L9.33838 28.4487" stroke="#276E91" stroke-miterlimit="10" stroke-linecap="round" stroke-linejoin="round"/>
<path d="M21.791 26.8538L17.3068 29.1596L23.3386 33.8698L25.2663 28.4129" stroke="#276E91" stroke-miterlimit="10" stroke-linecap="round" stroke-linejoin="round"/>
<path d="M51.4319 19.6168H41.4039L39.2786 22.4901L36.9497 17.5351L34.2347 21.2655L32.7589 19.6168H25.5447" stroke="#45B14A" stroke-miterlimit="10" stroke-linecap="round" stroke-linejoin="round"/>
<path d="M39.2037 31.298H42.7539C42.7943 31.2979 42.8344 31.3058 42.8718 31.3212C42.9092 31.3366 42.9432 31.3593 42.9719 31.3878C43.0005 31.4164 43.0233 31.4504 43.0388 31.4878C43.0543 31.5251 43.0622 31.5652 43.0622 31.6057V34.8732H46.3371C46.3776 34.8731 46.4176 34.881 46.455 34.8964C46.4924 34.9118 46.5264 34.9345 46.555 34.963C46.5837 34.9916 46.6064 35.0255 46.6219 35.0629C46.6374 35.1003 46.6454 35.1403 46.6454 35.1808V38.7231C46.6454 38.7636 46.6374 38.8036 46.6219 38.841C46.6064 38.8784 46.5837 38.9123 46.5551 38.9409C46.5264 38.9695 46.4924 38.9921 46.455 39.0075C46.4176 39.023 46.3776 39.0308 46.3371 39.0307H43.0622V42.2983C43.0617 42.3799 43.0291 42.458 42.9713 42.5156C42.9136 42.5732 42.8354 42.6057 42.7539 42.606H39.2037C39.0361 42.606 38.8953 42.4656 38.8953 42.2983V39.0307H35.6236C35.5832 39.0308 35.5431 39.023 35.5057 39.0075C35.4683 38.9921 35.4343 38.9695 35.4056 38.9409C35.377 38.9123 35.3542 38.8784 35.3387 38.841C35.3232 38.8036 35.3152 38.7636 35.3152 38.7231V35.1808C35.3152 35.1403 35.3232 35.1003 35.3387 35.0629C35.3542 35.0255 35.377 34.9916 35.4056 34.963C35.4343 34.9344 35.4683 34.9118 35.5057 34.8964C35.5431 34.8809 35.5832 34.8731 35.6236 34.8732H38.8953V31.6057C38.8953 31.4354 39.0361 31.298 39.2037 31.298Z" stroke="#45B14A" stroke-miterlimit="10" stroke-linecap="round" stroke-linejoin="round"/>
<path d="M14.8373 31.1009V37.0086C14.8373 37.4268 15.1786 37.7673 15.5976 37.7673H19.085C19.5042 37.7673 19.8484 37.4268 19.8484 37.0086V31.1427L19.5939 30.9456" stroke="#276E91" stroke-miterlimit="10" stroke-linecap="round" stroke-linejoin="round"/>
<path d="M21.4706 1.47214C21.2851 4.17818 20.3571 6.77968 18.8484 8.1864C16.2292 10.6295 10.7751 10.761 8.06305 10.6953" stroke="#276E91" stroke-miterlimit="10" stroke-linecap="round" stroke-linejoin="round"/>
<path d="M19.7435 7.12008C22.2849 7.36502 26.6643 10.4204 26.6223 13.8643" stroke="#276E91" stroke-miterlimit="10" stroke-linecap="round" stroke-linejoin="round"/>
<path d="M26.4727 16.7465C27.8886 16.9167 28.9572 16.3344 29.5918 15.4742C30.9059 13.6941 30.373 10.7222 27.254 10.7222H26.6163" stroke="#276E91" stroke-miterlimit="10" stroke-linecap="round" stroke-linejoin="round"/>
<path d="M8.20681 16.7196C6.79088 16.8898 5.72234 16.3103 5.08764 15.4472C3.77352 13.6701 4.30642 10.6953 7.42548 10.6953H8.06314" stroke="#276E91" stroke-miterlimit="10" stroke-linecap="round" stroke-linejoin="round"/>
<path d="M7.26398 43.2422V48.6154" stroke="#276E91" stroke-miterlimit="10" stroke-linecap="round" stroke-linejoin="round"/>
<path d="M27.4216 43.2422V48.6154" stroke="#276E91" stroke-miterlimit="10" stroke-linecap="round" stroke-linejoin="round"/>
<path d="M17.3428 34.3566H17.3218" stroke="#276E91" stroke-miterlimit="10" stroke-linecap="round" stroke-linejoin="round"/>
<path d="M28.6699 29.9361L21.7911 26.8537V23.2099M19.1717 48.6154H33.3456V43.0898M1.3399 44.7594V48.6154H15.5138M12.8946 23.2099V26.8537L8.1529 29.0251C5.47381 30.2527 1.3399 32.0208 1.3399 38.0183V41.1095" stroke="#276E91" stroke-miterlimit="10" stroke-linecap="round" stroke-linejoin="round"/>
<path d="M40.9788 27.9051C31.7352 20.1245 22.2909 32.3613 32.4984 42.2684L40.9788 50.5L49.4622 42.2684C59.6668 32.3613 50.2225 20.1245 40.9788 27.9051Z" stroke="#45B14A" stroke-miterlimit="10" stroke-linecap="round" stroke-linejoin="round"/>
</svg>
