<svg width="361" height="200" viewBox="0 0 361 200" fill="none" xmlns="http://www.w3.org/2000/svg">
<path d="M19.7527 82.007C19.7527 82.007 15.4733 81.699 15.8677 91.2954C16.2622 100.892 17.2402 106.009 17.2402 106.009C17.2402 106.009 17.1159 108.132 15.4679 107.716C13.8198 107.3 10.7183 105.231 9.18375 106.803C7.6492 108.375 8.16252 110.872 10.2644 113.773C12.3663 116.675 16.7485 123.197 17.1483 123.791C17.5482 124.386 17.6887 125.461 16.5215 125.353C15.3544 125.245 7.46548 122.575 6.42263 126.396C5.37978 130.216 12.5717 137.332 13.3443 138.126C14.117 138.921 14.1603 139.418 13.8469 139.899C13.5335 140.38 10.9669 139.229 8.69205 138.564C6.41723 137.899 3.66691 137.489 3.24005 139.764C2.81318 142.038 5.99036 148.614 17.8616 155.541L23.5729 158.394L28.9763 154.947C40.091 146.842 42.5874 139.985 41.9444 137.786C41.3014 135.587 38.5997 136.235 36.4059 137.127C34.2122 138.018 31.7698 139.418 31.4132 138.975C31.0566 138.532 31.0458 138.024 31.732 137.159C32.4182 136.295 38.8699 128.514 37.4488 124.796C36.0277 121.079 28.4468 124.548 27.2958 124.769C26.1449 124.991 26.2152 123.894 26.5178 123.278C26.8203 122.662 30.5541 115.713 32.3642 112.622C34.1743 109.532 34.4823 107.014 32.7424 105.598C31.0026 104.182 28.1874 106.581 26.588 107.165C24.9886 107.749 24.6536 105.636 24.6536 105.636C24.6536 105.636 25.1129 100.454 24.5455 90.8631C23.9782 81.2721 19.6501 82.0502 19.6501 82.0502" fill="#45B14A"/>
<path d="M20.094 90.5928C20.094 90.5928 20.094 90.6576 20.094 90.7927C20.094 90.9278 20.094 91.1277 20.1372 91.3817C20.175 91.922 20.2236 92.6677 20.2939 93.6457C20.4236 95.6179 20.5911 98.4655 20.7856 101.988C21.18 109.013 21.6339 118.766 22.104 129.519C22.5741 140.271 23.0064 150.014 23.3576 157.076C23.5359 160.593 23.6818 163.441 23.7845 165.419C23.8331 166.397 23.8709 167.158 23.8979 167.688C23.8979 167.942 23.8979 168.136 23.8979 168.277C23.9015 168.345 23.9015 168.414 23.8979 168.482C23.8979 168.482 23.8979 168.412 23.8979 168.282C23.8979 168.153 23.8979 167.942 23.8547 167.693C23.8169 167.153 23.7629 166.402 23.698 165.424C23.5683 163.457 23.4008 160.61 23.2063 157.087C22.8119 150.062 22.358 140.304 21.8879 129.529C21.4178 118.755 20.9855 109.04 20.6343 101.972C20.4506 98.4601 20.3101 95.6125 20.2074 93.6295C20.1588 92.6515 20.121 91.8896 20.094 91.3601C20.094 91.1115 20.094 90.9116 20.094 90.7711C20.0911 90.7117 20.0911 90.6522 20.094 90.5928Z" fill="#E0E0E0"/>
<path d="M13.4082 109.851C13.5376 109.932 13.6557 110.03 13.7594 110.142C13.981 110.342 14.2998 110.639 14.6672 111.012C15.4237 111.763 16.4341 112.817 17.531 114.011L20.3245 117.069L21.1728 117.993C21.2875 118.096 21.3875 118.215 21.47 118.345C21.3394 118.263 21.2196 118.165 21.1134 118.053C20.8973 117.853 20.5731 117.556 20.211 117.178C19.4654 116.421 18.4658 115.351 17.3689 114.162L14.5861 111.126C14.2457 110.769 13.9648 110.461 13.727 110.207C13.6048 110.104 13.4975 109.984 13.4082 109.851Z" fill="#E0E0E0"/>
<path d="M22.0378 118.149C21.9945 118.106 24.0856 115.923 26.7009 113.286C29.3161 110.649 31.4829 108.515 31.5261 108.558C31.5693 108.601 29.4782 110.784 26.8576 113.421C24.2369 116.058 22.081 118.192 22.0378 118.149Z" fill="#E0E0E0"/>
<path d="M22.0176 134.7C22.1413 134.602 22.2754 134.516 22.4174 134.446L23.5305 133.82C24.4761 133.279 25.7729 132.555 27.1778 131.691C28.5827 130.826 29.8308 130.01 30.7278 129.405L31.8085 128.697C31.933 128.6 32.0691 128.518 32.2137 128.454C32.1083 128.573 31.9885 128.678 31.8571 128.767C31.6194 128.951 31.2681 129.216 30.8305 129.535C29.9497 130.172 28.7123 131.015 27.3021 131.88C25.8918 132.744 24.6004 133.463 23.617 133.955C23.1361 134.203 22.7416 134.398 22.4661 134.522C22.3256 134.602 22.1747 134.662 22.0176 134.7Z" fill="#E0E0E0"/>
<path d="M12.5566 128.908C12.6945 128.955 12.8268 129.016 12.9511 129.092L13.9885 129.67C14.8585 130.162 16.0472 130.859 17.3602 131.637C18.6733 132.415 19.8512 133.134 20.6995 133.663C21.1264 133.928 21.4668 134.144 21.7045 134.301C21.8309 134.372 21.9487 134.457 22.0558 134.555C21.9143 134.513 21.7796 134.451 21.6559 134.371L20.6239 133.82C19.7539 133.323 18.5598 132.631 17.2468 131.848C15.9337 131.064 14.7558 130.351 13.9075 129.827C13.4806 129.562 13.1402 129.346 12.9079 129.189C12.7792 129.111 12.6612 129.017 12.5566 128.908Z" fill="#E0E0E0"/>
<path d="M10.6816 143.546C10.8582 143.607 11.0269 143.688 11.1842 143.789L12.5134 144.518C13.6265 145.145 15.1664 146.026 16.8361 147.009C18.5057 147.993 20.0781 148.895 21.1588 149.554L22.4556 150.349C22.619 150.439 22.7729 150.546 22.9149 150.668C22.7408 150.601 22.5727 150.519 22.4124 150.424L21.0723 149.663C19.9538 149.036 18.4193 148.155 16.7496 147.172C15.08 146.188 13.5076 145.286 12.4269 144.627L11.1355 143.832C10.9751 143.752 10.8231 143.656 10.6816 143.546Z" fill="#E0E0E0"/>
<path d="M22.6934 150.387C22.8464 150.257 23.0131 150.145 23.1905 150.052L24.5791 149.209C25.7463 148.496 27.3619 147.501 29.118 146.361C30.8741 145.221 32.4302 144.146 33.5595 143.362L34.8942 142.433C35.0511 142.311 35.2193 142.204 35.3967 142.114C35.2592 142.259 35.1071 142.39 34.9428 142.503C34.6402 142.741 34.2025 143.076 33.646 143.487C32.5653 144.303 30.9929 145.399 29.2368 146.545C27.4807 147.691 25.8489 148.663 24.6548 149.344C24.055 149.679 23.5741 149.949 23.2283 150.127C23.0578 150.229 22.8788 150.316 22.6934 150.387Z" fill="#E0E0E0"/>
<path d="M31.2565 160.242H15.457L20.6172 199.276H26.1017L31.2565 160.242Z" fill="black"/>
<path d="M16.2793 165.041C16.2793 165.041 16.2793 165.095 16.3658 165.181C16.4684 165.3 16.5981 165.393 16.744 165.451C17.0195 165.547 17.3132 165.578 17.6026 165.542C17.892 165.507 18.1694 165.405 18.4136 165.246C19.0512 164.895 19.6078 164.203 20.4615 163.901C21.4096 163.595 22.4325 163.614 23.3685 163.955C24.3184 164.283 25.2254 164.723 26.0702 165.268C26.7782 165.709 27.5147 166.102 28.2748 166.446C28.7902 166.678 29.336 166.836 29.8958 166.916C30.0477 166.94 30.2013 166.95 30.3551 166.948C30.4577 166.948 30.5118 166.948 30.5118 166.948C29.7649 166.832 29.0376 166.614 28.3504 166.3C27.6072 165.934 26.8855 165.527 26.1891 165.079C25.3334 164.513 24.4092 164.059 23.4388 163.728C22.449 163.369 21.3668 163.358 20.3696 163.695C19.9482 163.866 19.559 164.107 19.2187 164.409C18.9324 164.661 18.6291 164.894 18.311 165.106C18.0898 165.259 17.8382 165.362 17.5733 165.409C17.3084 165.455 17.0365 165.444 16.7764 165.376C16.5913 165.296 16.4227 165.182 16.2793 165.041Z" fill="#F5F5F5"/>
<path d="M16.8562 172.227C16.8562 172.227 16.9805 172.07 17.229 171.81C17.5861 171.456 18.0156 171.183 18.488 171.011C19.192 170.756 19.9395 170.644 20.6872 170.681C21.6091 170.748 22.5258 170.872 23.4321 171.054C24.3596 171.231 25.3081 171.271 26.2472 171.173C27.0137 171.074 27.7607 170.859 28.4626 170.535C28.9359 170.324 29.3836 170.059 29.7973 169.746C29.9566 169.643 30.0988 169.515 30.2187 169.368C29.635 169.747 29.0246 170.083 28.3924 170.373C27.6997 170.65 26.9726 170.832 26.231 170.914C25.3143 170.998 24.3902 170.952 23.4861 170.778C22.5677 170.597 21.638 170.478 20.7034 170.422C19.9255 170.394 19.1504 170.53 18.4286 170.822C17.9408 171.014 17.5069 171.322 17.1642 171.719C17.0739 171.828 16.9943 171.945 16.9264 172.07C16.867 172.183 16.8454 172.227 16.8562 172.227Z" fill="#F5F5F5"/>
<path d="M29.468 176.079C29.3378 175.976 29.1892 175.899 29.0303 175.852C28.611 175.693 28.1702 175.598 27.7227 175.571C27.0613 175.53 26.3973 175.568 25.745 175.684C25.0048 175.803 24.2159 176.009 23.3892 176.182C22.6175 176.365 21.8264 176.454 21.0333 176.446C20.3923 176.431 19.76 176.295 19.1691 176.046C18.6242 175.791 18.1398 175.423 17.748 174.966C17.8075 175.122 17.8996 175.264 18.0182 175.382C18.319 175.722 18.687 175.996 19.0989 176.187C19.7052 176.474 20.3631 176.636 21.0333 176.662C21.8458 176.686 22.6578 176.602 23.4486 176.414C24.2915 176.236 25.0696 176.025 25.7937 175.874C26.4291 175.751 27.0757 175.697 27.7227 175.711C28.3175 175.76 28.9039 175.884 29.468 176.079Z" fill="#F5F5F5"/>
<path d="M18.2502 181.494C18.733 181.283 19.2694 181.229 19.7847 181.337C20.3462 181.474 20.8901 181.676 21.4057 181.937C22.06 182.249 22.7642 182.443 23.486 182.51C24.8078 182.628 26.1329 182.321 27.2684 181.634C27.6067 181.427 27.9219 181.184 28.2086 180.91C28.4031 180.705 28.5004 180.586 28.4841 180.575C28.0672 180.903 27.6305 181.204 27.1765 181.478C26.0576 182.089 24.784 182.36 23.513 182.256C22.0163 182.169 20.8654 181.278 19.828 181.175C19.4295 181.105 19.0198 181.141 18.6392 181.278C18.369 181.369 18.2448 181.483 18.2502 181.494Z" fill="#F5F5F5"/>
<path d="M19.1309 188.982C19.5844 188.997 20.0353 188.908 20.4493 188.723C21.2436 188.458 22.227 187.848 23.3725 187.394C23.9061 187.174 24.4759 187.055 25.053 187.042C25.5209 187.04 25.983 187.146 26.4038 187.35C26.7865 187.554 27.1188 187.84 27.3764 188.188C27.3543 188.067 27.3023 187.954 27.2251 187.858C27.0334 187.577 26.7755 187.347 26.4741 187.188C26.035 186.946 25.5436 186.814 25.0422 186.805C24.4347 186.805 23.833 186.923 23.2699 187.151C22.0811 187.626 21.1085 188.231 20.3683 188.55C19.628 188.869 19.1255 188.934 19.1309 188.982Z" fill="#F5F5F5"/>
<path d="M19.9043 192.467C20.22 192.624 20.5567 192.735 20.9039 192.797C21.7281 192.99 22.5637 193.131 23.4057 193.218C24.2478 193.3 25.0945 193.323 25.9399 193.289C26.2933 193.295 26.646 193.253 26.9881 193.164C26.9881 193.089 25.3671 193.164 23.4327 192.959C21.4983 192.754 19.9259 192.392 19.9043 192.467Z" fill="#F5F5F5"/>
<path d="M314.341 94.2842L266.295 105.262L273.694 137.647L321.74 126.67L314.341 94.2842Z" fill="#F5F5F5"/>
<path d="M314.593 94.624C314.493 94.8151 314.376 94.996 314.241 95.1644L313.161 96.6395L309.157 102.043C305.715 106.603 301.003 112.85 295.778 119.766L295.67 119.912L295.502 119.831L295.108 119.642L274.862 109.807L268.745 106.787L267.124 105.944C266.925 105.854 266.735 105.745 266.557 105.62C266.765 105.683 266.968 105.764 267.162 105.863L268.848 106.63L275.029 109.505L295.33 119.231L295.729 119.425L295.454 119.49C300.717 112.606 305.466 106.387 308.962 101.848C310.675 99.6329 312.075 97.8336 313.08 96.5422L314.214 95.1157C314.324 94.9395 314.45 94.7748 314.593 94.624Z" fill="#E0E0E0"/>
<path d="M273.949 137.991C273.84 137.931 276.44 132.668 279.752 126.233C283.064 119.798 285.847 114.621 285.955 114.675C286.063 114.729 283.464 119.998 280.152 126.438C276.839 132.879 274.051 138.045 273.949 137.991Z" fill="#E0E0E0"/>
<path d="M301.829 110.623C301.905 110.526 306.482 114.119 312.052 118.642C317.623 123.164 322.07 126.914 321.989 127.011C321.908 127.109 317.337 123.515 311.766 118.987C306.195 114.459 301.748 110.72 301.829 110.623Z" fill="#E0E0E0"/>
<path d="M100.312 6.22633L95.9062 25.3115L124.221 31.8484L128.627 12.7633L100.312 6.22633Z" fill="#F5F5F5"/>
<path d="M128.675 13.0215C128.573 13.0957 128.464 13.1607 128.351 13.216L127.405 13.7239L123.893 15.5502L112.238 21.494L112.141 21.5426L112.07 21.4615L111.908 21.2562L103.701 10.8493L101.237 7.66673L100.577 6.79679C100.493 6.70137 100.421 6.59615 100.361 6.4834C100.455 6.56886 100.54 6.66293 100.615 6.76437L101.318 7.6073L103.846 10.7304L112.119 21.1103L112.281 21.3102L112.119 21.2778L123.807 15.3881L127.357 13.6321L128.329 13.1674C128.439 13.1065 128.555 13.0576 128.675 13.0215Z" fill="#E0E0E0"/>
<path d="M95.9517 25.5689C95.9084 25.5095 98.6534 23.4076 102.057 20.8247C105.462 18.2419 108.277 16.2319 108.32 16.2913C108.363 16.3508 105.618 18.4527 102.214 21.0355C98.8101 23.6183 95.9949 25.6283 95.9517 25.5689Z" fill="#E0E0E0"/>
<path d="M117.792 18.2258C117.856 18.1934 119.364 21.2787 121.152 25.1097C122.941 28.9407 124.335 32.0747 124.27 32.1341C124.205 32.1935 122.703 29.0812 120.915 25.2502C119.126 21.4192 117.721 18.2529 117.792 18.2258Z" fill="#E0E0E0"/>
<path d="M279.801 11.0173L259.113 19.9053L265.105 33.8507L285.792 24.9628L279.801 11.0173Z" fill="#F5F5F5"/>
<path d="M279.936 11.1631C279.905 11.2542 279.867 11.3427 279.822 11.4278L279.466 12.1789C279.136 12.8489 278.671 13.7999 278.109 14.9346L273.554 24.0015L273.516 24.0771H273.435L273.241 24.0285L263.336 21.2728L260.338 20.3488L259.527 20.1057L259.246 20.0084C259.345 20.0178 259.443 20.0377 259.538 20.0678L260.359 20.2732L263.374 21.0675L273.295 23.7691L273.489 23.8232L273.376 23.8772C275.17 20.3488 276.796 17.1608 277.98 14.8374C278.569 13.7027 279.06 12.7733 279.395 12.1357L279.784 11.4008C279.826 11.3164 279.877 11.2368 279.936 11.1631Z" fill="#E0E0E0"/>
<path d="M265.239 33.9713C265.185 33.9713 265.92 31.3723 266.86 28.2059C267.8 25.0395 268.665 22.5107 268.719 22.5107C268.773 22.5107 268.038 25.1044 267.098 28.2707C266.158 31.4371 265.304 33.9875 265.239 33.9713Z" fill="#E0E0E0"/>
<path d="M275.516 19.3757C275.543 19.3217 277.899 20.5591 280.773 22.1368C283.648 23.7146 285.955 25.0277 285.928 25.0763C285.901 25.1249 283.551 23.8929 280.676 22.3152C277.801 20.7374 275.489 19.4244 275.516 19.3757Z" fill="#E0E0E0"/>
<path d="M307.192 152.061C304.982 150.671 302.483 149.808 299.887 149.538C298.692 149.419 297.385 149.451 296.423 150.176C296.314 150.241 296.223 150.333 296.161 150.444C296.098 150.555 296.066 150.68 296.066 150.808C296.126 150.987 296.246 151.14 296.407 151.24C297.962 152.35 299.791 153.014 301.696 153.158C303.601 153.303 305.509 152.924 307.214 152.061" fill="#45B14A"/>
<path d="M307.003 151.851C305.307 150.606 303.725 149.214 302.275 147.69C300.819 146.159 299.796 144.268 299.314 142.211C299.217 141.906 299.188 141.584 299.228 141.267C299.269 140.95 299.377 140.645 299.546 140.374C303.329 143.319 306.273 147.128 307.003 151.851Z" fill="#45B14A"/>
<path d="M307.154 152.029C306.802 149.973 306.831 147.87 307.241 145.826C307.661 143.763 308.841 141.935 310.548 140.703C311.196 142.221 310.921 143.978 310.461 145.566C309.751 148.031 308.643 150.363 307.181 152.472" fill="#45B14A"/>
<path d="M310.85 158.675C308.602 158.95 306.652 160.134 304.977 161.647C303.293 163.179 302.122 165.192 301.621 167.412C303.82 167.277 305.684 165.726 307.024 163.986C308.364 162.246 309.315 160.339 310.807 158.713" fill="#45B14A"/>
<path d="M311.65 159.707C310.769 157.466 310.46 155.04 310.751 152.649C311.043 150.259 311.926 147.978 313.32 146.015C314.601 150.559 314.131 155.692 311.65 159.707Z" fill="#45B14A"/>
<path d="M316.529 165.521C314.479 165.395 312.438 165.875 310.659 166.9C308.88 167.925 307.441 169.45 306.522 171.286C306.441 171.398 306.392 171.53 306.38 171.668C306.368 171.806 306.392 171.944 306.451 172.069C306.538 172.153 306.644 172.215 306.76 172.248C306.875 172.282 306.998 172.288 307.116 172.264C309.088 172.134 310.839 170.951 312.281 169.6C313.724 168.249 314.983 166.682 316.577 165.515" fill="#45B14A"/>
<path d="M316.378 165.207C315.325 161.823 315.26 158.209 316.189 154.79C316.557 153.45 317.173 152.039 318.41 151.407C318.511 151.343 318.633 151.322 318.75 151.348C318.85 151.401 318.927 151.49 318.966 151.596C319.391 152.532 319.576 153.559 319.507 154.584C319.436 155.604 319.28 156.616 319.042 157.61C318.648 159.458 318.442 161.447 317.421 163.041C317.183 163.425 316.968 163.824 316.778 164.235C316.584 164.64 316.584 164.775 316.411 165.105" fill="#45B14A"/>
<path d="M329.298 167.131C328.341 163.489 329.357 159.074 331.654 156.086C331.821 155.87 332.043 155.632 332.318 155.659C332.745 155.697 332.859 156.259 332.859 156.686C332.687 160.431 331.462 164.051 329.325 167.131" fill="#45B14A"/>
<path d="M330.465 167.926C332.726 168.455 335.076 168.487 337.351 168.021C339.626 167.555 341.773 166.6 343.644 165.224C341.437 164.117 338.915 163.808 336.506 164.349C334.123 164.889 331.945 165.97 330.465 167.904" fill="#45B14A"/>
<path d="M331.443 165.499C333.924 161.463 338.673 158.826 343.406 158.583C342.866 160.512 341.277 162.009 339.494 162.906C337.668 163.738 335.735 164.314 333.751 164.619C332.989 164.764 331.94 164.927 331.443 165.526" fill="#45B14A"/>
<path d="M329.547 153.736C330.298 151.454 330.811 149.1 331.076 146.712C331.338 144.312 330.849 141.89 329.677 139.779C327.364 144.259 327.132 149.505 329.477 153.958" fill="#45B14A"/>
<path d="M337.338 149.797C340.04 144.88 345.567 140.952 351.154 140.4C348.993 145.766 343.119 149.916 337.338 149.797Z" fill="#45B14A"/>
<path d="M335.631 150.764C339.673 151.375 343.109 153.957 346.881 155.519C347.672 155.901 348.549 156.068 349.426 156.005C349.833 156.001 350.23 155.871 350.561 155.634C350.893 155.397 351.144 155.063 351.279 154.678C351.415 154.294 351.429 153.877 351.32 153.484C351.21 153.091 350.983 152.742 350.668 152.482C350.136 151.99 349.509 151.609 348.826 151.364C344.714 149.651 340.31 149.608 335.982 150.645" fill="#45B14A"/>
<path d="M333.295 153.596C334.208 153.855 334.521 154.33 335.246 154.946C337.714 157.045 340.634 158.545 343.777 159.328C344.102 159.41 344.529 159.437 344.691 159.145C344.853 158.853 344.653 158.577 344.469 158.345C343.096 156.74 341.318 155.533 339.32 154.849C337.353 154.12 335.645 153.228 333.295 153.423" fill="#45B14A"/>
<path d="M330.686 136.52C332.341 138.046 334.298 139.209 336.43 139.934C338.562 140.659 340.822 140.93 343.065 140.73C343.263 140.729 343.455 140.658 343.605 140.53C343.918 140.189 343.54 139.665 343.178 139.384C339.542 136.547 335.133 135.369 330.664 136.52" fill="#45B14A"/>
<path d="M333.787 135.348C335.978 133.737 338.52 132.666 341.203 132.224C343.887 131.781 346.638 131.98 349.23 132.803C347.21 134.679 344.618 135.821 341.871 136.045C339.15 136.293 336.406 136.061 333.766 135.359" fill="#45B14A"/>
<path d="M332.545 127.492C332.189 123.861 332.421 121.008 332.167 117.344C332.167 117.053 332.086 116.701 331.81 116.599C331.432 116.453 331.113 116.918 330.989 117.307C330.461 118.998 330.327 120.787 330.596 122.538C330.864 124.289 331.529 125.956 332.54 127.411" fill="#45B14A"/>
<path d="M332.307 127.876C334.679 126.345 336.723 124.358 338.321 122.029C339.509 120.408 340.482 118.458 340.239 116.464C339.405 116.489 338.586 116.696 337.84 117.069C337.093 117.442 336.437 117.973 335.916 118.625C334.879 119.938 334.126 121.453 333.706 123.072C333.225 124.693 332.885 126.314 332.323 127.881" fill="#45B14A"/>
<path d="M338.191 126.254C343.607 124.248 348.62 121.291 352.996 117.522C351.229 116.809 349.214 117.236 347.436 117.949C343.423 119.47 340.107 122.409 338.115 126.211" fill="#45B14A"/>
<path d="M333.928 129.88C336.653 130.267 339.417 130.282 342.146 129.923C344.816 129.475 347.333 128.421 349.824 127.373C350.05 127.316 350.244 127.172 350.365 126.973C350.404 126.858 350.407 126.734 350.374 126.618C350.342 126.501 350.274 126.397 350.181 126.319C349.989 126.169 349.766 126.063 349.527 126.011C346.826 125.255 343.897 125.611 341.233 126.508C338.687 127.374 336.239 128.504 333.928 129.88Z" fill="#45B14A"/>
<path d="M318.339 136.618C316.475 132.836 316.594 128.465 318.204 124.585C319.339 126.309 319.479 128.513 319.285 130.566C319.09 132.62 318.453 134.738 318.415 136.807" fill="#45B14A"/>
<path d="M310.887 132.863C308.553 132.83 306.238 133.286 304.09 134.201C301.943 135.116 300.01 136.469 298.416 138.174C300.768 138.458 303.151 138.017 305.246 136.91C307.324 135.806 309.285 134.494 311.098 132.993" fill="#45B14A"/>
<path d="M305.885 131.188C303.604 131.004 301.416 130.718 299.222 131.393C298.115 131.706 297.088 132.254 296.213 133C295.337 133.746 294.633 134.673 294.148 135.716C296.297 135.889 298.452 135.483 300.389 134.538C302.316 133.593 304.155 132.479 305.885 131.21" fill="#45B14A"/>
<path d="M313.299 131.264C311.251 129.918 309.144 128.562 306.761 128.022C304.378 127.481 301.612 127.876 299.947 129.643C301.876 130.777 304.221 130.912 306.431 130.912C308.641 130.912 311.419 130.885 313.526 131.631" fill="#45B14A"/>
<path d="M313.309 131.372C309.808 127.93 308.478 121.754 309.889 117.053C312.653 121.285 313.862 126.347 313.309 131.372Z" fill="#45B14A"/>
<path d="M322.943 121.624C323.603 120.089 324.067 118.479 324.656 116.917C325.201 115.338 326.033 113.872 327.109 112.594C328.2 111.308 329.752 110.5 331.432 110.347C330.895 112.72 329.868 114.955 328.418 116.909C326.967 118.863 325.125 120.493 323.008 121.694" fill="#45B14A"/>
<path d="M321.198 123.656C320.118 122.154 318.842 120.111 317.362 118.987C315.881 117.863 313.947 117.182 312.137 117.615C313.073 119.257 314.38 120.658 315.953 121.707C317.526 122.755 319.322 123.423 321.198 123.656Z" fill="#45B14A"/>
<path d="M321.55 121.753C320.762 119.959 320.182 118.081 319.821 116.156C319.46 114.215 319.769 112.209 320.696 110.466C322.62 114.102 323.236 118.031 321.647 121.813" fill="#45B14A"/>
<path d="M322.959 110.466C324.04 106.862 327.346 104.209 330.907 102.993C331.349 102.814 331.827 102.742 332.301 102.783C332.538 102.809 332.762 102.904 332.944 103.057C333.127 103.21 333.26 103.413 333.328 103.642C333.458 104.252 332.955 104.803 332.474 105.209C329.691 107.587 326.454 109.375 322.959 110.466Z" fill="#45B14A"/>
<path d="M322.996 107.521C323.137 105.198 323.283 102.842 324.034 100.637C324.785 98.4326 326.249 96.3739 328.357 95.4121C328.719 97.7572 327.681 100.091 326.433 102.107C325.185 104.122 323.677 106.035 322.932 108.283" fill="#45B14A"/>
<path d="M322.943 109.12C322.041 106.494 321.949 103.177 320.377 100.869C319.296 99.2484 317.518 98.1678 316.594 96.4873C316.026 98.113 316.105 99.8951 316.816 101.464C317.532 103.012 318.519 104.421 319.728 105.624C320.89 106.867 321.89 107.786 322.97 109.12" fill="#45B14A"/>
<path d="M322.96 186.443C322.889 186.443 322.83 168.931 322.825 147.328C322.819 125.725 322.873 108.202 322.943 108.202C323.014 108.202 323.073 125.714 323.079 147.328C323.084 168.941 323.03 186.443 322.96 186.443Z" fill="black"/>
<path d="M338.25 133.976C338.037 134.077 337.817 134.16 337.59 134.224L335.775 134.835C334.251 135.375 332.149 136.11 329.869 137.039C327.589 137.969 325.487 138.795 324.276 139.844C323.793 140.248 323.408 140.758 323.153 141.335C322.98 141.746 322.947 141.994 322.926 141.989C322.904 141.983 322.926 141.929 322.926 141.805C322.953 141.632 322.996 141.462 323.055 141.297C323.279 140.688 323.65 140.144 324.136 139.714C324.866 139.094 325.684 138.584 326.562 138.201C327.535 137.753 328.61 137.277 329.755 136.807C332.041 135.872 334.154 135.143 335.699 134.646C336.472 134.408 337.104 134.23 337.542 134.105C337.773 134.04 338.01 133.996 338.25 133.976Z" fill="black"/>
<path d="M343.281 121.651C343.23 121.725 343.168 121.791 343.097 121.846L342.557 122.386L340.461 124.294L333.474 130.513C330.772 132.939 328.395 135.257 326.763 136.997C325.942 137.872 325.299 138.591 324.861 139.093L324.353 139.677C324.298 139.747 324.234 139.81 324.164 139.866C324.164 139.866 324.207 139.785 324.315 139.645C324.423 139.504 324.575 139.293 324.785 139.034C325.202 138.494 325.828 137.764 326.628 136.873C328.738 134.57 330.967 132.381 333.307 130.313C336.041 127.892 338.532 125.715 340.331 124.148L342.492 122.3C342.73 122.105 342.93 121.943 343.087 121.808C343.146 121.749 343.211 121.696 343.281 121.651Z" fill="black"/>
<path d="M330.513 132.966C330.437 132.939 331.01 131.621 331.593 129.956C332.177 128.292 332.436 126.893 332.506 126.903C332.445 127.977 332.217 129.034 331.831 130.037C331.588 130.755 331.305 131.459 330.983 132.145C330.865 132.439 330.706 132.715 330.513 132.966Z" fill="black"/>
<path d="M322.975 143.572C322.818 143.423 322.677 143.258 322.553 143.08L321.472 141.703C320.57 140.535 319.311 138.92 317.917 137.153C316.523 135.386 315.215 133.808 314.297 132.663L313.216 131.301C313.074 131.133 312.947 130.952 312.838 130.761C313.005 130.896 313.157 131.048 313.292 131.215C313.573 131.517 313.967 131.966 314.454 132.522C315.421 133.641 316.734 135.224 318.139 136.975C319.544 138.725 320.77 140.379 321.635 141.573C322.072 142.173 322.418 142.654 322.65 143.005C322.777 143.183 322.885 143.373 322.975 143.572Z" fill="black"/>
<path d="M319.62 139.26C318.94 138.513 318.456 137.609 318.21 136.629C317.948 135.77 317.841 134.872 317.891 133.976H318.004C317.956 134.176 317.918 134.284 317.896 134.278C317.875 134.273 317.896 134.165 317.896 133.954H318.004C318.062 134.828 318.213 135.694 318.453 136.537C318.771 137.473 319.161 138.384 319.62 139.26Z" fill="black"/>
<path d="M315.286 133.82C314.981 133.593 314.651 133.403 314.302 133.252C313.427 132.993 312.507 132.92 311.601 133.036C310.675 133.107 309.757 133.255 308.856 133.479C308.486 133.594 308.109 133.684 307.727 133.75C308.061 133.546 308.426 133.397 308.807 133.306C309.708 133.023 310.638 132.841 311.579 132.766C312.526 132.64 313.49 132.743 314.389 133.069C314.766 133.208 315.083 133.473 315.286 133.82Z" fill="black"/>
<path d="M314.26 132.49C314.26 132.528 313.687 132.263 312.752 131.95C310.321 131.118 307.717 130.919 305.188 131.372C304.215 131.545 303.631 131.723 303.615 131.685C303.739 131.608 303.874 131.55 304.015 131.512C304.387 131.384 304.766 131.277 305.15 131.193C307.711 130.635 310.38 130.838 312.828 131.777C313.198 131.918 313.559 132.082 313.909 132.269C314.036 132.325 314.154 132.399 314.26 132.49Z" fill="black"/>
<path d="M322.944 126.903C322.5 125.659 322.139 124.386 321.863 123.094C321.494 121.823 321.209 120.528 321.01 119.22C321.45 120.467 321.811 121.741 322.09 123.035C322.456 124.305 322.741 125.597 322.944 126.903Z" fill="black"/>
<path d="M323.014 126.903C322.66 126.116 322.253 125.354 321.798 124.622C321.28 123.933 320.678 123.312 320.004 122.774C320.259 122.838 320.496 122.96 320.696 123.131C321.204 123.502 321.647 123.957 322.003 124.476C322.545 125.184 322.893 126.02 323.014 126.903Z" fill="black"/>
<path d="M322.96 177.105C322.933 177.105 322.879 176.684 322.685 175.944C322.395 174.895 322.002 173.878 321.512 172.907C319.825 169.737 317.739 166.797 315.304 164.159C313.915 162.576 312.569 161.079 311.429 159.652C310.404 158.393 309.478 157.056 308.657 155.654C308.11 154.707 307.642 153.717 307.258 152.693C307.134 152.325 307.036 152.039 306.988 151.845C306.953 151.746 306.928 151.645 306.912 151.542C306.912 151.542 307.063 151.942 307.35 152.655C307.766 153.66 308.256 154.634 308.814 155.568C309.651 156.945 310.585 158.261 311.608 159.507C312.759 160.922 314.104 162.408 315.493 163.991C318.297 167.142 320.496 170.319 321.674 172.831C322.146 173.817 322.508 174.852 322.755 175.917C322.823 176.207 322.876 176.501 322.911 176.797C322.938 176.898 322.954 177.001 322.96 177.105Z" fill="black"/>
<path d="M336.791 161.484C336.565 161.64 336.33 161.785 336.089 161.917C335.434 162.286 334.806 162.702 334.209 163.159C333.328 163.845 332.502 164.598 331.739 165.413C330.869 166.331 329.978 167.39 329.065 168.53C327.244 170.816 325.542 172.853 324.52 174.474C323.98 175.279 323.623 175.955 323.38 176.425C323.264 176.677 323.131 176.921 322.98 177.154C322.98 177.154 322.98 177.084 323.045 176.949C323.11 176.814 323.175 176.625 323.288 176.382C323.608 175.694 323.969 175.026 324.369 174.382C325.752 172.301 327.255 170.302 328.87 168.395C329.783 167.255 330.686 166.185 331.572 165.272C332.353 164.459 333.2 163.712 334.106 163.041C334.718 162.59 335.367 162.193 336.046 161.852C336.289 161.733 336.483 161.657 336.586 161.603C336.689 161.549 336.786 161.474 336.791 161.484Z" fill="black"/>
<path d="M337.061 166.553C336.563 166.666 336.058 166.741 335.548 166.78C334.319 166.908 333.103 167.149 331.917 167.498C330.747 167.877 329.65 168.455 328.675 169.206C327.924 169.784 327.568 170.286 327.535 170.232C327.591 170.104 327.667 169.985 327.762 169.881C327.999 169.582 328.267 169.309 328.562 169.065C329.53 168.256 330.646 167.642 331.847 167.255C333.05 166.895 334.29 166.675 335.543 166.601C336.047 166.539 336.555 166.523 337.061 166.553Z" fill="black"/>
<path d="M327.952 169.67C327.871 169.627 328.562 168.59 329.097 167.152C329.632 165.715 329.719 164.451 329.805 164.483C329.852 164.755 329.852 165.033 329.805 165.304C329.726 165.963 329.576 166.612 329.357 167.239C329.123 167.861 328.824 168.457 328.465 169.016C328.173 169.443 327.984 169.692 327.952 169.67Z" fill="black"/>
<path d="M341.272 147.868C341.192 147.917 341.109 147.961 341.023 147.998L340.304 148.322C339.991 148.457 339.607 148.63 339.175 148.862C338.743 149.095 338.24 149.316 337.711 149.635L336.873 150.111C336.587 150.273 336.3 150.473 335.993 150.651C335.377 151.029 334.761 151.488 334.101 151.959C332.698 153.017 331.376 154.178 330.146 155.433C328.936 156.704 327.82 158.063 326.807 159.496C326.358 160.172 325.921 160.804 325.569 161.436C325.391 161.744 325.202 162.041 325.029 162.333C324.856 162.625 324.726 162.917 324.581 163.187C324.283 163.727 324.073 164.235 323.862 164.678C323.651 165.121 323.489 165.505 323.365 165.824C323.241 166.142 323.143 166.364 323.062 166.553C323.032 166.64 322.993 166.724 322.943 166.802C322.956 166.71 322.981 166.621 323.019 166.537C323.084 166.337 323.17 166.094 323.273 165.786C323.376 165.478 323.532 165.067 323.732 164.619C323.932 164.17 324.132 163.651 324.419 163.106L324.856 162.241C325.007 161.944 325.197 161.647 325.397 161.328C325.748 160.69 326.18 160.047 326.628 159.367C327.635 157.911 328.753 156.536 329.973 155.255C331.215 153.994 332.549 152.829 333.966 151.769C334.636 151.299 335.263 150.845 335.884 150.478C336.198 150.289 336.49 150.094 336.781 149.938C337.073 149.781 337.36 149.624 337.63 149.473C338.17 149.17 338.678 148.933 339.121 148.738C339.496 148.552 339.88 148.386 340.272 148.241L341.012 147.955C341.093 147.911 341.181 147.882 341.272 147.868Z" fill="black"/>
<path d="M330.324 155.211C330.425 154.857 330.635 154.543 330.924 154.314C331.599 153.73 332.458 153.402 333.35 153.385C334.225 153.382 335.091 153.551 335.9 153.882C336.244 153.991 336.57 154.149 336.868 154.352C336.519 154.286 336.177 154.186 335.846 154.055C335.047 153.779 334.207 153.639 333.361 153.639C332.521 153.654 331.709 153.938 331.043 154.449C330.785 154.685 330.544 154.94 330.324 155.211Z" fill="black"/>
<path d="M328.686 156.897C329.42 155.489 329.612 153.861 329.226 152.32C329.373 152.512 329.471 152.736 329.512 152.974C329.658 153.533 329.699 154.114 329.631 154.687C329.563 155.255 329.389 155.805 329.118 156.308C328.896 156.719 328.713 156.919 328.686 156.897Z" fill="black"/>
<path d="M310.861 179.618C311.24 186.313 313.255 193.127 316.357 200H329.865C332.826 193.186 334.701 186.389 335.036 179.618H310.861Z" fill="black"/>
<path d="M332.849 190.447C332.849 190.517 328.402 190.576 322.923 190.576C317.444 190.576 313.002 190.517 313.002 190.447C313.002 190.376 317.444 190.322 322.923 190.322C328.402 190.322 332.849 190.382 332.849 190.447Z" fill="#FAFAFA"/>
<path d="M332.533 192.872C332.533 192.943 328.367 193.002 323.229 193.002C318.09 193.002 313.93 192.943 313.93 192.872C313.93 192.802 318.096 192.748 323.229 192.748C328.362 192.748 332.533 192.802 332.533 192.872Z" fill="#FAFAFA"/>
<path d="M272.784 59.416H80.7594C76.4115 59.416 72.8867 62.9407 72.8867 67.2887V188.94C72.8867 193.288 76.4115 196.813 80.7594 196.813H272.784C277.132 196.813 280.657 193.288 280.657 188.94V67.2887C280.657 62.9407 277.132 59.416 272.784 59.416Z" fill="black"/>
<path d="M64.7656 187.94H289.87V190.345C289.87 192.896 288.857 195.342 287.053 197.146C285.249 198.95 282.803 199.963 280.252 199.963H74.3836C71.8328 199.963 69.3864 198.95 67.5827 197.146C65.7789 195.342 64.7656 192.896 64.7656 190.345V187.94Z" fill="black"/>
<path d="M274.497 64.874H78.4629V180.901H274.497V64.874Z" fill="black"/>
<path d="M156.293 186.649L159.081 191.096H198.391L200.984 186.649H156.293Z" fill="black"/>
<path d="M269.1 68.8018H84.2728C83.2969 68.8018 82.5059 69.5928 82.5059 70.5687V178.766C82.5059 179.742 83.2969 180.533 84.2728 180.533H269.1C270.076 180.533 270.867 179.742 270.867 178.766V70.5687C270.867 69.5928 270.076 68.8018 269.1 68.8018Z" fill="#EBEBEB"/>
<path d="M270.66 180.695H82.2988L82.5042 77.1553H270.66V180.695Z" fill="#FAFAFA"/>
<path d="M97.9526 73.1184C97.9536 73.4167 97.8661 73.7087 97.7011 73.9574C97.5361 74.206 97.3011 74.4001 97.0257 74.515C96.7503 74.6299 96.447 74.6605 96.1543 74.603C95.8615 74.5454 95.5923 74.4023 95.381 74.1917C95.1696 73.981 95.0255 73.7124 94.9669 73.4199C94.9083 73.1273 94.9378 72.8239 95.0517 72.5481C95.1657 72.2723 95.3589 72.0366 95.6069 71.8707C95.855 71.7048 96.1466 71.6162 96.445 71.6162C96.6428 71.6155 96.8387 71.6538 97.0215 71.729C97.2044 71.8042 97.3706 71.9147 97.5107 72.0543C97.6508 72.1938 97.7619 72.3597 97.8377 72.5423C97.9135 72.7249 97.9526 72.9206 97.9526 73.1184Z" fill="black"/>
<path d="M88.8334 73.1184C88.8345 73.417 88.7469 73.7092 88.5816 73.9579C88.4164 74.2067 88.181 74.4007 87.9053 74.5155C87.6296 74.6303 87.3261 74.6606 87.0331 74.6026C86.7402 74.5446 86.4711 74.4009 86.2599 74.1897C86.0488 73.9786 85.9051 73.7095 85.8471 73.4165C85.7891 73.1236 85.8194 72.82 85.9341 72.5443C86.0489 72.2687 86.243 72.0333 86.4917 71.868C86.7405 71.7028 87.0327 71.6152 87.3313 71.6162C87.5288 71.6155 87.7244 71.6539 87.907 71.7291C88.0896 71.8043 88.2554 71.915 88.3951 72.0546C88.5347 72.1942 88.6453 72.3601 88.7205 72.5427C88.7958 72.7252 88.8341 72.9209 88.8334 73.1184Z" fill="black"/>
<path d="M93.2084 73.1184C93.2095 73.417 93.1219 73.7092 92.9566 73.9579C92.7914 74.2067 92.556 74.4007 92.2803 74.5155C92.0046 74.6303 91.7011 74.6606 91.4081 74.6026C91.1152 74.5446 90.8461 74.4009 90.6349 74.1897C90.4237 73.9786 90.2801 73.7095 90.2221 73.4165C90.1641 73.1236 90.1944 72.82 90.3091 72.5443C90.4239 72.2687 90.618 72.0333 90.8667 71.868C91.1155 71.7028 91.4077 71.6152 91.7063 71.6162C91.9038 71.6155 92.0994 71.6539 92.282 71.7291C92.4645 71.8043 92.6304 71.915 92.7701 72.0546C92.9097 72.1942 93.0203 72.3601 93.0955 72.5427C93.1708 72.7252 93.2091 72.9209 93.2084 73.1184Z" fill="black"/>
<path d="M278.868 186.649C278.868 186.724 232.756 186.784 175.886 186.784C119.015 186.784 72.8867 186.724 72.8867 186.649C72.8867 186.573 118.994 186.514 175.886 186.514C232.778 186.514 278.868 186.579 278.868 186.649Z" fill="black"/>
<path d="M142.817 117.599L219.453 116.886L221.696 168.98L142.342 168.412L142.817 117.599Z" fill="#45B14A"/>
<path d="M142.818 117.61L179.021 88.1886C179.765 87.584 180.694 87.2539 181.652 87.2539C182.611 87.2539 183.54 87.584 184.284 88.1886L219.449 116.891" fill="#45B14A"/>
<g opacity="0.3">
<path d="M142.816 117.611L179.019 88.1896C179.763 87.585 180.692 87.2549 181.65 87.2549C182.609 87.2549 183.538 87.585 184.282 88.1896L219.447 116.892" fill="black"/>
</g>
<path d="M142.343 168.402C142.251 168.31 148.368 161.599 156.013 153.413C163.659 145.227 169.938 138.684 170.035 138.759C170.132 138.835 164.01 145.557 156.359 153.748C148.708 161.94 142.44 168.5 142.343 168.402Z" fill="black"/>
<path d="M221.695 168.98C221.598 169.072 215.611 162.496 208.322 154.353C201.033 146.21 195.203 139.494 195.3 139.407C195.397 139.321 201.384 145.891 208.679 154.039C215.973 162.188 221.793 168.893 221.695 168.98Z" fill="black"/>
<g opacity="0.5">
<path d="M219.452 116.886L181.034 147.707L142.816 117.599" fill="black"/>
</g>
<path d="M146.687 120.441L146.514 96.5046L213.618 95.5752L214.423 120.755L181.03 147.302L146.687 120.441Z" fill="#FAFAFA"/>
<path d="M146.686 120.441C146.686 120.441 146.908 120.598 147.324 120.917L149.15 122.327L156.099 127.73C162.086 132.404 170.688 139.077 181.1 147.226H180.96L214.337 120.657L214.288 120.771C214.131 115.967 213.969 110.926 213.807 105.798C213.694 102.345 213.585 98.9304 213.477 95.5857L213.618 95.7208L146.519 96.607L146.605 96.5151C146.638 104.042 146.67 110.024 146.686 114.119C146.686 116.167 146.686 117.745 146.686 118.82C146.686 119.361 146.686 119.755 146.686 120.036C146.686 120.317 146.686 120.452 146.686 120.452C146.686 120.452 146.686 120.317 146.686 120.047C146.686 119.777 146.686 119.366 146.686 118.842C146.686 117.761 146.654 116.194 146.632 114.152C146.595 110.04 146.535 104.058 146.465 96.5151V96.4287H146.551L213.612 95.4561H213.753V95.5965C213.861 98.9412 213.969 102.351 214.083 105.803C214.245 110.931 214.407 115.973 214.558 120.776V120.846L214.504 120.89L181.09 147.42L181.019 147.48L180.949 147.42L155.975 127.822L149.08 122.386L147.281 120.96L146.686 120.441Z" fill="black"/>
<path d="M203.037 107.646C203.037 107.721 192.771 107.867 180.116 107.97C167.462 108.073 157.195 108.094 157.195 108.019C157.195 107.943 167.462 107.797 180.116 107.689C192.771 107.581 203.037 107.565 203.037 107.646Z" fill="black"/>
<path d="M203.05 114.405C203.05 114.481 192.783 114.632 180.134 114.735C167.485 114.838 157.213 114.859 157.213 114.778C157.213 114.697 167.479 114.557 180.134 114.454C192.789 114.351 203.05 114.33 203.05 114.405Z" fill="black"/>
<path d="M203.065 122.197C203.065 122.279 192.799 122.424 180.15 122.527C167.5 122.63 157.229 122.651 157.229 122.57C157.229 122.489 167.495 122.349 180.15 122.246C192.804 122.143 203.065 122.122 203.065 122.197Z" fill="black"/>
<path d="M203.081 129.99C203.081 130.071 193.296 130.211 181.219 130.309C169.142 130.406 159.352 130.428 159.352 130.347C159.352 130.265 169.137 130.125 181.219 130.028C193.301 129.93 203.081 129.914 203.081 129.99Z" fill="black"/>
<path d="M194.521 136.846C194.433 136.871 194.342 136.882 194.251 136.879L193.478 136.911L190.647 136.981L181.293 137.154C177.641 137.219 174.328 137.241 171.935 137.241H169.103H168.331C168.24 137.243 168.149 137.234 168.061 137.214C168.148 137.189 168.24 137.178 168.331 137.181L169.098 137.149L171.935 137.079L181.288 136.911C184.941 136.841 188.248 136.819 190.641 136.819H193.478H194.251C194.341 136.819 194.432 136.828 194.521 136.846Z" fill="black"/>
<path d="M185.876 143.439C184.26 143.584 182.636 143.635 181.013 143.59C179.391 143.641 177.768 143.598 176.15 143.46C177.767 143.318 179.391 143.267 181.013 143.309C182.636 143.261 184.259 143.304 185.876 143.439Z" fill="black"/>
<path d="M360.945 199.498C360.945 199.579 280.143 199.638 180.472 199.638C80.802 199.638 0 199.579 0 199.498C0 199.417 80.7857 199.357 180.472 199.357C280.159 199.357 360.945 199.422 360.945 199.498Z" fill="black"/>
<path d="M194.932 95.3636C195.008 95.3636 195.04 95.677 195.002 96.0498C194.965 96.4226 194.873 96.7144 194.797 96.709C194.721 96.7036 194.689 96.3902 194.727 96.0174C194.765 95.6445 194.851 95.3528 194.932 95.3636Z" fill="black"/>
<path d="M195.652 90.1016C195.723 90.5441 195.703 90.9964 195.593 91.4308C195.567 91.8798 195.451 92.319 195.252 92.7222C195.197 91.8301 195.333 90.9366 195.652 90.1016Z" fill="black"/>
<path d="M196.711 84.8926C196.755 85.341 196.705 85.7937 196.565 86.2218C196.51 86.6678 196.364 87.098 196.138 87.4862C196.095 87.0392 196.146 86.5881 196.289 86.1624C196.34 85.7144 196.483 85.2819 196.711 84.8926Z" fill="black"/>
<path d="M198.154 79.7861C198.082 80.6802 197.819 81.5483 197.381 82.3311C197.376 81.8807 197.462 81.434 197.635 81.0181C197.719 80.5753 197.895 80.1554 198.154 79.7861Z" fill="black"/>
<path d="M200.005 74.8047C199.973 75.2534 199.849 75.691 199.643 76.0907C199.52 76.524 199.309 76.927 199.021 77.274C199.057 76.8309 199.18 76.3992 199.384 76.0042C199.503 75.5647 199.715 75.1557 200.005 74.8047Z" fill="black"/>
<path d="M202.308 70.0215C202.074 70.8845 201.662 71.6889 201.098 72.3828C201.17 71.9397 201.334 71.5165 201.579 71.14C201.914 70.4862 202.238 69.9837 202.308 70.0215Z" fill="black"/>
<path d="M205.085 65.494C204.96 65.9267 204.749 66.3293 204.463 66.6774C204.074 67.2934 203.702 67.758 203.637 67.7202C203.745 67.2827 203.946 66.8736 204.226 66.5207C204.636 65.9101 205.02 65.4508 205.085 65.494Z" fill="black"/>
<path d="M208.36 61.3125C208.191 61.7292 207.939 62.1077 207.62 62.4255C207.15 62.9659 206.723 63.4036 206.658 63.3549C206.594 63.3063 206.929 62.8146 207.404 62.2472C207.88 61.6799 208.301 61.2638 208.36 61.3125Z" fill="black"/>
<path d="M212.099 57.5454C212.153 57.6049 211.764 58.0588 211.234 58.5613C210.705 59.0638 210.229 59.4258 210.154 59.3718C210.078 59.3178 210.483 58.8639 211.018 58.356C211.553 57.848 212.05 57.486 212.099 57.5454Z" fill="black"/>
<path d="M216.282 54.2715C216.325 54.3363 215.882 54.7416 215.293 55.1738C214.96 55.4737 214.568 55.7017 214.142 55.8439C214.094 55.7844 214.537 55.3792 215.131 54.9469C215.463 54.6431 215.855 54.4129 216.282 54.2715Z" fill="black"/>
<path d="M220.863 51.5859C220.182 52.1685 219.384 52.5995 218.524 52.8503C218.486 52.7801 218.977 52.4451 219.604 52.0939C219.983 51.8363 220.412 51.6631 220.863 51.5859Z" fill="black"/>
<path d="M225.78 49.5869C225.423 49.8594 225.015 50.0578 224.58 50.1705C224.175 50.3666 223.733 50.4753 223.283 50.4893C223.639 50.2149 224.047 50.0163 224.483 49.9057C224.887 49.707 225.329 49.5983 225.78 49.5869Z" fill="black"/>
<path d="M230.946 48.3815C230.547 48.5848 230.112 48.706 229.666 48.7381C229.238 48.8742 228.788 48.9202 228.342 48.8732C229.154 48.4919 230.05 48.3227 230.946 48.3815Z" fill="black"/>
<path d="M236.247 48.0903C235.82 48.2307 235.37 48.2821 234.923 48.2416C234.476 48.2953 234.023 48.2529 233.594 48.1173C234.02 47.9755 234.47 47.9222 234.918 47.9607C235.365 47.9085 235.818 47.9528 236.247 48.0903Z" fill="black"/>
<path d="M241.53 48.7115C241.085 48.7782 240.631 48.7525 240.196 48.6359C239.745 48.6109 239.305 48.4912 238.904 48.2847C239.8 48.2418 240.694 48.3873 241.53 48.7115Z" fill="black"/>
<path d="M246.604 50.2298C245.714 50.1211 244.857 49.8226 244.092 49.3545C244.542 49.3686 244.984 49.4714 245.394 49.6571C245.833 49.7603 246.246 49.9555 246.604 50.2298Z" fill="black"/>
<path d="M251.331 52.6393C250.892 52.5425 250.477 52.3588 250.11 52.0989C249.7 51.9147 249.332 51.648 249.029 51.3154C249.469 51.4089 249.885 51.5929 250.25 51.8558C250.888 52.2286 251.374 52.5744 251.331 52.6393Z" fill="black"/>
<path d="M255.493 55.9254C255.085 55.7417 254.718 55.4791 254.412 55.1527C253.872 54.6772 253.461 54.2341 253.51 54.1747C253.558 54.1153 254.05 54.4557 254.59 54.942C255.131 55.4283 255.547 55.8714 255.493 55.9254Z" fill="black"/>
<path d="M258.118 58.9506C258.053 58.9938 257.821 58.7939 257.577 58.5021C257.334 58.2103 257.215 57.9347 257.275 57.8807C257.334 57.8267 257.567 58.032 257.815 58.3292C258.064 58.6264 258.183 58.9019 258.118 58.9506Z" fill="black"/>
<path d="M283.104 91.5053C282.651 91.4475 282.215 91.2966 281.823 91.0623C281.143 90.7489 280.618 90.4355 280.656 90.3652C281.11 90.428 281.546 90.5785 281.942 90.8083C282.372 90.9602 282.768 91.1973 283.104 91.5053Z" fill="black"/>
<path d="M288.206 93.2948C287.3 93.2135 286.42 92.9448 285.623 92.5059C286.53 92.5846 287.41 92.8534 288.206 93.2948Z" fill="black"/>
<path d="M293.539 94.1321C293.09 94.2256 292.626 94.2256 292.177 94.1321C291.721 94.1293 291.27 94.0317 290.854 93.8457C291.301 93.7559 291.762 93.7559 292.21 93.8457C292.668 93.8506 293.12 93.948 293.539 94.1321Z" fill="black"/>
<path d="M298.931 93.9649C298.507 94.1343 298.052 94.2152 297.596 94.2027C297.145 94.2866 296.68 94.2737 296.234 94.1649C296.661 93.9979 297.116 93.9154 297.574 93.9217C298.025 93.8419 298.486 93.8566 298.931 93.9649Z" fill="black"/>
<path d="M304.236 92.9701C303.844 93.2043 303.408 93.3586 302.956 93.424C302.518 93.5604 302.056 93.6064 301.6 93.5591C302 93.3381 302.441 93.2002 302.896 93.1538C303.326 93.0006 303.782 92.938 304.236 92.9701Z" fill="black"/>
<path d="M309.252 90.9766C309.29 91.0468 308.766 91.3548 308.085 91.6736C307.691 91.9068 307.253 92.0541 306.799 92.1059C307.53 91.5636 308.365 91.1791 309.252 90.9766Z" fill="black"/>
<path d="M313.731 87.9668C313.78 88.0262 313.358 88.4693 312.758 88.9232C312.421 89.2347 312.016 89.464 311.575 89.5932C311.532 89.5284 311.997 89.1447 312.591 88.7017C312.924 88.39 313.31 88.141 313.731 87.9668Z" fill="black"/>
<path d="M317.405 84.0221C317.258 84.4594 317.012 84.8569 316.687 85.1838C316.206 85.762 315.741 86.1618 315.687 86.1078C315.633 86.0538 316 85.5675 316.47 85.0271C316.941 84.4868 317.34 83.9789 317.405 84.0221Z" fill="black"/>
<path d="M319.935 79.2461C319.917 79.7073 319.789 80.1576 319.562 80.5591C319.412 80.995 319.165 81.3906 318.838 81.7154C318.919 81.2669 319.076 80.8356 319.303 80.4402C319.446 80.01 319.659 79.6065 319.935 79.2461Z" fill="black"/>
<path d="M320.961 73.9824C321.09 74.4248 321.111 74.8921 321.02 75.3441C321.02 75.8062 320.905 76.261 320.685 76.6679C320.63 76.2176 320.649 75.7615 320.739 75.3171C320.739 74.863 320.814 74.412 320.961 73.9824Z" fill="black"/>
<path d="M320.155 68.6553C320.414 69.0364 320.581 69.4732 320.641 69.9305C320.787 70.3669 320.826 70.8321 320.754 71.2867C320.553 70.8813 320.421 70.4446 320.365 69.9953C320.221 69.5634 320.15 69.1106 320.155 68.6553Z" fill="black"/>
<path d="M317.805 63.814C317.864 63.7654 318.275 64.2301 318.653 64.8947C318.923 65.2665 319.097 65.6988 319.161 66.1537C319.091 66.1915 318.777 65.6728 318.41 65.0352C318.143 64.6641 317.938 64.2515 317.805 63.814Z" fill="black"/>
<path d="M314.056 59.9551C314.494 60.1021 314.889 60.3544 315.206 60.6899C315.779 61.1816 316.152 61.6679 316.098 61.722C316.044 61.776 315.558 61.3816 315.017 60.9007C314.477 60.4198 314.012 60.0199 314.056 59.9551Z" fill="black"/>
<path d="M309.154 57.7618C309.616 57.7185 310.081 57.7948 310.505 57.9834C310.955 58.0869 311.373 58.3004 311.721 58.6047C311.271 58.5564 310.831 58.436 310.419 58.2481C309.975 58.1519 309.548 57.9879 309.154 57.7618Z" fill="black"/>
<path d="M303.798 57.8537C304.192 57.6085 304.643 57.4724 305.106 57.4593C305.558 57.3562 306.029 57.3711 306.473 57.5025C305.586 57.7038 304.681 57.8214 303.771 57.8537H303.798Z" fill="black"/>
<path d="M299.141 60.458C299.082 60.4094 299.454 59.9176 300.065 59.4476C300.408 59.1327 300.83 58.9178 301.286 58.8262C301.324 58.9018 300.816 59.2314 300.205 59.6745C299.595 60.1176 299.2 60.512 299.141 60.458Z" fill="black"/>
<path d="M297.002 65.3105C296.899 64.8563 296.928 64.3824 297.083 63.9435C297.146 63.4809 297.343 63.047 297.65 62.6953C297.602 63.1429 297.502 63.5835 297.353 64.0083C297.293 64.4558 297.175 64.8936 297.002 65.3105Z" fill="black"/>
<path d="M298.055 70.5465C297.735 70.2113 297.51 69.7975 297.401 69.3469C297.204 68.9258 297.125 68.4586 297.174 67.9961C297.396 68.3908 297.562 68.8146 297.666 69.2551C297.858 69.6644 297.989 70.0994 298.055 70.5465Z" fill="black"/>
<path d="M301.589 74.5668C301.146 74.4292 300.746 74.1799 300.428 73.8428C299.855 73.3457 299.504 72.8378 299.563 72.7891C299.623 72.7405 300.06 73.1457 300.611 73.632C301.163 74.1184 301.633 74.502 301.589 74.5668Z" fill="black"/>
<path d="M306.495 76.766C306.035 76.7909 305.575 76.7038 305.155 76.512C304.704 76.411 304.286 76.1972 303.939 75.8906C304.39 75.9389 304.83 76.0593 305.242 76.2472C305.686 76.3475 306.11 76.5229 306.495 76.766Z" fill="black"/>
<path d="M311.856 77.2737C310.967 77.5028 310.032 77.4823 309.154 77.2142C309.598 77.121 310.054 77.0991 310.505 77.1494C310.959 77.1123 311.416 77.1543 311.856 77.2737Z" fill="black"/>
<path d="M317.178 76.29C316.383 76.7462 315.479 76.9778 314.562 76.9601C314.961 76.7435 315.394 76.599 315.843 76.5332C316.272 76.379 316.722 76.2968 317.178 76.29Z" fill="black"/>
<path d="M322.041 74.0479C321.719 74.3737 321.335 74.631 320.911 74.8043C320.531 75.0578 320.102 75.2306 319.652 75.3122C320.352 74.7301 321.166 74.2996 322.041 74.0479Z" fill="black"/>
<path d="M326.363 70.8271C326.417 70.8866 325.99 71.3189 325.412 71.7944C325.086 72.1164 324.701 72.3716 324.277 72.5454C324.229 72.4806 324.661 72.0483 325.234 71.5782C325.558 71.2577 325.942 71.0027 326.363 70.8271Z" fill="black"/>
<path d="M330.064 66.8777C330.124 66.9264 329.778 67.4181 329.292 67.9962C328.805 68.5744 328.362 68.985 328.308 68.931C328.254 68.877 328.595 68.3907 329.076 67.8125C329.557 67.2343 330 66.8183 330.064 66.8777Z" fill="black"/>
<path d="M333.031 62.3712C332.927 62.817 332.732 63.2364 332.458 63.6032C332.069 64.2462 331.707 64.7325 331.643 64.6838C331.747 64.2383 331.942 63.819 332.215 63.4519C332.599 62.8197 332.961 62.3334 333.031 62.3712Z" fill="black"/>
<path d="M335.224 57.4326C335.191 57.8899 335.068 58.3361 334.862 58.7456C334.742 59.1882 334.524 59.5982 334.225 59.9452C334.271 59.4925 334.397 59.0517 334.597 58.643C334.722 58.2013 334.936 57.7896 335.224 57.4326Z" fill="black"/>
<path d="M336.732 52.2285C336.759 52.6842 336.691 53.1407 336.532 53.5685C336.462 54.0214 336.3 54.4553 336.057 54.8437C336.095 53.9341 336.325 53.0429 336.732 52.2285Z" fill="black"/>
<path d="M337.677 46.9336C337.751 47.3852 337.729 47.8474 337.612 48.2898C337.588 48.7459 337.472 49.1924 337.272 49.6029C337.197 49.1513 337.219 48.6891 337.336 48.2466C337.362 47.7907 337.478 47.3444 337.677 46.9336Z" fill="black"/>
<path d="M338.176 41.5518C338.301 42.4563 338.233 43.3772 337.976 44.2534C337.874 43.8064 337.861 43.3438 337.938 42.8918C337.926 42.4337 338.007 41.9779 338.176 41.5518Z" fill="black"/>
<path d="M338.347 36.1543C338.48 36.5916 338.518 37.0519 338.461 37.5051C338.501 37.9622 338.444 38.4226 338.293 38.856C338.168 38.4155 338.129 37.9549 338.18 37.4997C338.146 37.0446 338.203 36.5873 338.347 36.1543Z" fill="black"/>
<path d="M338.309 30.75C338.454 31.1847 338.509 31.6442 338.471 32.1008C338.526 32.5548 338.483 33.0152 338.347 33.4517C338.203 33.0169 338.148 32.5574 338.185 32.1008C338.137 31.6468 338.18 31.1877 338.309 30.75Z" fill="black"/>
<path d="M338.251 27.4277C338.326 27.4277 338.397 27.5628 338.402 27.7357C338.407 27.9086 338.348 28.0437 338.267 28.0491C338.186 28.0545 338.121 27.914 338.121 27.7411C338.121 27.5682 338.154 27.4277 338.251 27.4277Z" fill="black"/>
<path d="M350.069 11.3832L313.342 15.373L316.031 40.1315L352.758 36.1417L350.069 11.3832Z" fill="#276E91"/>
<path d="M316.016 40.1581L313.314 15.3891L350.057 11.4014L352.759 36.1758L316.016 40.1581ZM313.358 15.3999L316.059 40.1311L352.759 36.1434L350.057 11.4122L313.358 15.3999Z" fill="black"/>
<path d="M350.221 11.7031C350.13 11.8351 350.027 11.9581 349.913 12.0706L348.989 13.081L345.536 16.7445L334.032 28.7507L333.94 28.8534L333.821 28.7778L333.54 28.5995L319.34 19.5164L315.018 16.7337L313.861 15.961C313.723 15.8757 313.591 15.78 313.467 15.6746C313.618 15.7356 313.763 15.8116 313.899 15.9015L315.088 16.6202L319.411 19.3219L333.681 28.3239L333.962 28.5022H333.751L345.368 16.5662L348.897 12.9783L349.864 12.0165C349.973 11.9015 350.092 11.7966 350.221 11.7031Z" fill="black"/>
<path d="M316.178 40.4279C316.102 40.3792 318.496 36.6833 321.521 32.1823C324.547 27.6813 327.071 24.0773 327.146 24.1205C327.222 24.1637 324.834 27.865 321.802 32.366C318.771 36.867 316.253 40.4819 316.178 40.4279Z" fill="black"/>
<path d="M339.331 22.5108C339.402 22.4459 342.498 25.5204 346.248 29.373C349.998 33.2256 352.986 36.3974 352.921 36.4677C352.856 36.5379 349.76 33.4634 346.005 29.6054C342.249 25.7474 339.256 22.5486 339.331 22.5108Z" fill="black"/>
<path d="M182.347 86.459C182.422 86.459 182.536 86.7345 182.601 87.102C182.666 87.4694 182.649 87.7774 182.574 87.7936C182.498 87.8098 182.385 87.518 182.32 87.1452C182.255 86.7724 182.271 86.4698 182.347 86.459Z" fill="black"/>
<path d="M181.484 81.1855C181.687 81.5897 181.806 82.0308 181.835 82.4824C181.951 82.9191 181.977 83.3752 181.91 83.8224C181.703 83.4197 181.583 82.9778 181.559 82.5256C181.442 82.0888 181.417 81.6327 181.484 81.1855Z" fill="black"/>
<path d="M180.71 75.9014C180.908 76.3081 181.018 76.7516 181.034 77.2036C181.141 77.6424 181.158 78.0983 181.083 78.5436C180.883 78.1378 180.772 77.6937 180.759 77.2414C180.652 76.8026 180.635 76.3467 180.71 75.9014Z" fill="black"/>
<path d="M180.104 70.6006C180.285 71.0149 180.381 71.4615 180.385 71.9136C180.481 72.3552 180.481 72.812 180.385 73.2536C180.205 72.8394 180.111 72.3925 180.11 71.9406C180.015 71.4992 180.013 71.0428 180.104 70.6006Z" fill="black"/>
<path d="M179.733 65.2617C179.971 66.131 180.022 67.0405 179.885 67.931C179.647 67.0617 179.596 66.1522 179.733 65.2617Z" fill="black"/>
<path d="M179.678 59.918C179.865 60.8088 179.865 61.7288 179.678 62.6197C179.538 62.1896 179.492 61.7344 179.543 61.285C179.49 60.8249 179.536 60.3588 179.678 59.918Z" fill="black"/>
<path d="M180.013 54.5898C180.111 55.0321 180.12 55.4894 180.04 55.9353C180.047 56.3871 179.963 56.8357 179.791 57.2537C179.686 56.8143 179.675 56.3576 179.759 55.9137C179.751 55.4596 179.837 55.0087 180.013 54.5898Z" fill="black"/>
<path d="M180.813 49.3115C180.879 49.7596 180.848 50.2166 180.721 50.6516C180.689 51.1033 180.562 51.5433 180.349 51.943C180.322 51.0432 180.48 50.1476 180.813 49.3115Z" fill="black"/>
<path d="M182.179 44.1514C182.185 44.603 182.1 45.0513 181.931 45.4698C181.843 45.9139 181.669 46.3363 181.417 46.7126C181.405 46.2591 181.488 45.8081 181.66 45.3887C181.743 44.9441 181.92 44.5222 182.179 44.1514Z" fill="black"/>
<path d="M184.175 39.1963C184.128 39.647 183.988 40.083 183.764 40.4769C183.624 40.9067 183.398 41.3037 183.1 41.644C183.286 40.7618 183.654 39.9282 184.18 39.1963H184.175Z" fill="black"/>
<path d="M186.778 34.5388C186.673 34.9783 186.48 35.392 186.211 35.7546C185.833 36.3814 185.471 36.8353 185.4 36.8353C185.507 36.3954 185.702 35.9818 185.973 35.6195C186.351 34.9765 186.713 34.4956 186.778 34.5388Z" fill="black"/>
<path d="M189.982 30.2645C190.041 30.3186 189.717 30.8049 189.258 31.3938C188.798 31.9828 188.371 32.3934 188.307 32.3448C188.472 31.9234 188.72 31.5393 189.036 31.2155C189.501 30.6428 189.928 30.2159 189.982 30.2645Z" fill="black"/>
<path d="M193.78 26.5094C193.828 26.5742 193.429 27.0227 192.888 27.5198C192.348 28.0169 191.862 28.3682 191.808 28.3141C191.754 28.2601 192.153 27.8116 192.699 27.3091C193.245 26.8066 193.731 26.45 193.78 26.5094Z" fill="black"/>
<path d="M198.147 23.4395C198.184 23.5097 197.714 23.8825 197.093 24.277C196.738 24.5571 196.33 24.7613 195.893 24.8767C195.85 24.8173 196.32 24.4391 196.942 24.0392C197.3 23.7616 197.709 23.5577 198.147 23.4395Z" fill="black"/>
<path d="M203.011 21.251C202.66 21.5374 202.253 21.7473 201.817 21.867C201.416 22.0737 200.976 22.1951 200.525 22.2236C200.877 21.9382 201.283 21.7285 201.72 21.6076C202.12 21.4001 202.56 21.2786 203.011 21.251Z" fill="black"/>
<path d="M206.912 20.2901C206.912 20.3657 206.642 20.4846 206.28 20.5548C205.918 20.6251 205.605 20.6197 205.589 20.5548C205.572 20.49 205.859 20.3603 206.226 20.2901C206.594 20.2198 206.902 20.2144 206.912 20.2901Z" fill="black"/>
<path d="M178.169 0.00177419L168.404 25.2559L205.87 39.7426L215.635 14.4885L178.169 0.00177419Z" fill="#276E91"/>
<path d="M205.868 39.7634L168.391 25.2661L178.165 0L215.643 14.4918L205.868 39.7634ZM168.423 25.2499L205.868 39.7255L215.627 14.4972L178.182 0.021614L168.423 25.2499Z" fill="black"/>
<path d="M215.638 14.8424C215.486 14.9248 215.327 14.9918 215.162 15.0423L213.763 15.5503L208.603 17.3658L191.485 23.2447L191.344 23.2933L191.269 23.1636L191.085 22.8502L181.899 6.98052L179.149 2.14991L178.419 0.826081C178.325 0.675784 178.245 0.516515 178.182 0.350586C178.293 0.487403 178.393 0.633867 178.479 0.788257L179.273 2.07966L182.094 6.84003C184.493 10.9142 187.767 16.4958 191.382 22.6557L191.566 22.9691L191.35 22.888L208.522 17.1064L213.72 15.4044L215.141 14.9559C215.302 14.9003 215.468 14.8622 215.638 14.8424Z" fill="black"/>
<path d="M168.407 25.6068C168.358 25.5203 172.513 23.1483 177.69 20.3115C182.866 17.4747 187.097 15.2431 187.146 15.3296C187.194 15.416 183.039 17.7881 177.863 20.6303C172.686 23.4725 168.455 25.6932 168.407 25.6068Z" fill="black"/>
<path d="M199.726 19.8087C199.823 19.7817 201.277 24.2935 202.968 29.886C204.659 35.4785 205.967 40.0443 205.869 40.0713C205.772 40.0984 204.319 35.5919 202.627 29.9941C200.936 24.3962 199.629 19.8573 199.726 19.8087Z" fill="black"/>
<path d="M166.614 92.3702C166.689 92.3702 166.727 92.6836 166.7 93.0564C166.673 93.4293 166.581 93.7264 166.506 93.721C166.43 93.7156 166.387 93.4076 166.419 93.0348C166.452 92.662 166.538 92.3648 166.614 92.3702Z" fill="black"/>
<path d="M166.748 86.876C166.889 87.3209 166.937 87.7898 166.889 88.2538C166.931 88.7165 166.881 89.1828 166.743 89.6263C166.606 89.1825 166.561 88.7158 166.608 88.2538C166.565 87.7898 166.612 87.3218 166.748 86.876Z" fill="black"/>
<path d="M166.376 81.4072C166.643 82.2941 166.73 83.2258 166.63 84.1467C166.448 83.7181 166.358 83.2561 166.365 82.7905C166.278 82.3331 166.282 81.8632 166.376 81.4072Z" fill="black"/>
<path d="M165.463 75.9717C165.682 76.3822 165.818 76.8321 165.862 77.2955C165.996 77.7418 166.038 78.2104 165.987 78.6734C165.768 78.2625 165.632 77.8127 165.587 77.3495C165.45 76.9038 165.408 76.4346 165.463 75.9717Z" fill="black"/>
<path d="M163.967 70.6816C164.423 71.4883 164.708 72.3805 164.804 73.3023C164.541 72.9195 164.357 72.4877 164.264 72.0325C164.074 71.607 163.973 71.1474 163.967 70.6816Z" fill="black"/>
<path d="M161.865 65.6084C162.175 65.9552 162.41 66.3616 162.557 66.8025C162.788 67.2071 162.937 67.6533 162.995 68.1156C162.688 67.7666 162.453 67.3609 162.303 66.9214C162.07 66.5175 161.922 66.071 161.865 65.6084Z" fill="black"/>
<path d="M159.135 60.8367C159.2 60.7934 159.589 61.2797 159.999 61.9173C160.274 62.2951 160.472 62.7227 160.583 63.1763C160.513 63.2141 160.145 62.717 159.756 62.0632C159.47 61.6997 159.258 61.2827 159.135 60.8367Z" fill="black"/>
<path d="M155.77 56.4977C155.829 56.4437 156.272 56.876 156.758 57.4595C157.089 57.7888 157.351 58.1798 157.531 58.6104C157.466 58.6537 157.029 58.2214 156.542 57.6432C156.211 57.3164 155.949 56.927 155.77 56.4977Z" fill="black"/>
<path d="M151.837 52.6723C151.885 52.6129 152.377 52.9803 152.95 53.4882C153.523 53.9961 153.928 54.4608 153.874 54.5149C153.453 54.3191 153.074 54.0418 152.761 53.699C152.188 53.191 151.772 52.7318 151.837 52.6723Z" fill="black"/>
<path d="M147.368 49.4629C147.814 49.5922 148.23 49.8109 148.589 50.1059C149.221 50.5274 149.702 50.9218 149.67 50.9866C149.224 50.852 148.81 50.6317 148.449 50.3382C147.806 49.9222 147.325 49.5277 147.368 49.4629Z" fill="black"/>
<path d="M142.471 46.9658C142.932 47.0251 143.377 47.1776 143.778 47.4143C144.218 47.5666 144.622 47.8054 144.967 48.1167C144.505 48.0575 144.06 47.9049 143.659 47.6683C143.221 47.5143 142.817 47.2756 142.471 46.9658Z" fill="black"/>
<path d="M137.246 45.3079C137.712 45.2915 138.176 45.3668 138.613 45.5294C139.073 45.6064 139.512 45.7755 139.905 46.0265C139.439 46.0406 138.975 45.9654 138.538 45.805C138.079 45.7252 137.64 45.5563 137.246 45.3079Z" fill="black"/>
<path d="M131.783 44.61C132.701 44.4557 133.642 44.5318 134.523 44.8315C133.604 44.9057 132.678 44.8309 131.783 44.61Z" fill="black"/>
<path d="M126.305 44.9893C127.184 44.6951 128.115 44.5848 129.039 44.6651C128.614 44.8568 128.154 44.9598 127.688 44.9677C127.233 45.0643 126.763 45.0716 126.305 44.9893Z" fill="black"/>
<path d="M120.998 46.4043C121.38 46.1397 121.812 45.9558 122.268 45.864C122.694 45.6784 123.154 45.5827 123.619 45.583C123.235 45.8449 122.804 46.0286 122.349 46.1233C121.921 46.3035 121.462 46.3989 120.998 46.4043Z" fill="black"/>
<path d="M116.049 48.7872C116.011 48.7169 116.519 48.3711 117.194 48.0091C117.578 47.7438 118.012 47.5599 118.47 47.4688C117.758 48.0635 116.935 48.51 116.049 48.7818V48.7872Z" fill="black"/>
<path d="M111.663 52.0828C111.609 52.0287 112.041 51.5857 112.625 51.094C112.954 50.7634 113.345 50.5008 113.775 50.3213C113.819 50.3861 113.386 50.8292 112.808 51.3101C112.483 51.6435 112.094 51.9065 111.663 52.0828Z" fill="black"/>
<path d="M108.068 56.2331C108.207 55.7857 108.445 55.3756 108.765 55.0336C109.235 54.4284 109.695 54.0069 109.749 54.0556C109.803 54.1042 109.452 54.5959 108.987 55.2065C108.522 55.8171 108.133 56.2764 108.068 56.2331Z" fill="black"/>
<path d="M106.064 59.7944C105.994 59.762 106.064 59.4648 106.232 59.1244C106.399 58.784 106.583 58.5409 106.653 58.5841C106.723 58.6273 106.653 58.9191 106.486 59.2541C106.318 59.5891 106.134 59.8323 106.064 59.7944Z" fill="black"/>
<path d="M71.7305 91.674C71.7305 91.5984 72.0169 91.5011 72.3843 91.4525C72.7517 91.4039 73.0597 91.4525 73.0705 91.5119C73.0813 91.5714 72.7949 91.6902 72.4167 91.7335C72.0385 91.7767 71.7359 91.7659 71.7305 91.674Z" fill="black"/>
<path d="M66.3809 91.0794C66.8353 91.0743 67.2877 91.1418 67.7209 91.2793C68.1733 91.3262 68.615 91.4466 69.0285 91.6359C68.1119 91.723 67.1901 91.5349 66.3809 91.0956V91.0794Z" fill="black"/>
<path d="M61.5399 88.6855C61.975 88.8217 62.3841 89.0299 62.7503 89.3015C63.3878 89.6798 63.9012 89.9986 63.8687 90.0742C63.4132 89.9931 62.9824 89.8082 62.6098 89.5339C61.9614 89.1556 61.4967 88.7504 61.5399 88.6855Z" fill="black"/>
<path d="M57.5203 85.0762C57.5797 85.0275 58.0228 85.4382 58.5469 85.9677C59.0711 86.4973 59.4763 86.9457 59.4277 87.0052C59.3791 87.0646 58.8873 86.7026 58.347 86.1677C57.8067 85.6327 57.4609 85.1302 57.5203 85.0762Z" fill="black"/>
<path d="M54.3418 80.6994C54.412 80.6616 54.7957 81.1317 55.2009 81.7801C55.4872 82.1365 55.7002 82.546 55.8277 82.985C55.7629 83.0336 55.3792 82.5582 54.9686 81.9314C54.676 81.5689 54.4625 81.1493 54.3418 80.6994Z" fill="black"/>
<path d="M52.0098 75.8203C52.3074 76.168 52.5317 76.5724 52.669 77.0091C52.886 77.4133 53.0235 77.8553 53.0742 78.3113C52.7738 77.9646 52.5476 77.56 52.4096 77.1225C52.1912 76.7193 52.0552 76.2766 52.0098 75.8203Z" fill="black"/>
<path d="M50.4577 70.6328C50.7016 71.0215 50.8651 71.4551 50.9386 71.908C51.0984 72.3377 51.1683 72.7956 51.144 73.2534C50.8963 72.8667 50.7325 72.4323 50.6631 71.9783C50.5036 71.5485 50.4337 71.0906 50.4577 70.6328Z" fill="black"/>
<path d="M49.5173 65.2998C49.7152 65.7131 49.8308 66.1608 49.8577 66.6182C49.9711 67.0631 49.9931 67.5263 49.9226 67.9799C49.7199 67.5684 49.604 67.1196 49.5821 66.6615C49.4656 66.2171 49.4435 65.7532 49.5173 65.2998Z" fill="black"/>
<path d="M48.999 59.9131C49.2586 60.7887 49.3322 61.709 49.2151 62.6148C49.042 62.1915 48.9574 61.7373 48.9665 61.2801C48.8817 60.8272 48.8927 60.3615 48.999 59.9131Z" fill="black"/>
<path d="M48.7713 55.8545C48.8524 55.8545 48.928 56.1517 48.9443 56.5245C48.9605 56.8973 48.9118 57.1999 48.8362 57.2053C48.7605 57.2107 48.6795 56.9081 48.6633 56.5353C48.6471 56.1625 48.6957 55.8599 48.7713 55.8545Z" fill="black"/>
<path d="M69.1211 23.0932L24.1934 25.2119L25.6215 55.4965L70.5492 53.3778L69.1211 23.0932Z" fill="#276E91"/>
<path d="M25.6023 55.5095L24.1758 25.2128L69.121 23.0947L70.5475 53.3914L25.6023 55.5095ZM24.2028 25.2128L25.6293 55.4717L70.5313 53.3536L69.1048 23.0947L24.2028 25.2128Z" fill="black"/>
<path d="M69.2786 23.4512C69.1595 23.6044 69.0255 23.7456 68.8788 23.8726L67.6792 25.029L63.2214 29.2274L48.3406 42.9897L48.2163 43.1032L48.0812 43.006L47.757 42.7682L31.1525 30.6755C29.0668 29.1301 27.3701 27.8711 26.1489 26.9742L24.8035 25.9475C24.64 25.8369 24.4879 25.7102 24.3496 25.5693C24.5252 25.6602 24.6932 25.765 24.8521 25.8827L26.2462 26.8337L31.3254 30.4323L47.9947 42.4278L48.3243 42.6655H48.065L63.0215 28.995L67.5711 24.8939L68.8247 23.8132C68.963 23.677 69.1151 23.5557 69.2786 23.4512Z" fill="black"/>
<path d="M25.7752 55.8545C25.6887 55.7843 28.8713 51.4724 32.886 46.2257C36.9007 40.979 40.2292 36.7806 40.3156 36.8455C40.4021 36.9103 37.2249 41.2276 33.2102 46.4743C29.1955 51.7209 25.867 55.9194 25.7752 55.8545Z" fill="black"/>
<path d="M55.234 35.7657C55.3205 35.6901 58.8543 39.6561 63.123 44.6164C67.3916 49.5767 70.7903 53.6617 70.6877 53.7373C70.585 53.813 67.0728 49.8469 62.7988 44.8812C58.5247 39.9155 55.1476 35.8414 55.234 35.7657Z" fill="black"/>
</svg>
