<svg width="49" height="51" viewBox="0 0 49 51" fill="none" xmlns="http://www.w3.org/2000/svg">
<path d="M21.9556 12.7774C23.0693 12.4791 23.6085 10.8803 23.16 9.20644C22.7116 7.53262 21.4452 6.41759 20.3316 6.71597C19.218 7.01434 18.6787 8.61313 19.1272 10.287C19.5757 11.9608 20.842 13.0758 21.9556 12.7774Z" stroke="#45B14A" stroke-miterlimit="10" stroke-linecap="round" stroke-linejoin="round"/>
<path d="M30.4162 10.2873C30.8647 8.61351 30.3255 7.01472 29.2119 6.71634C28.0982 6.41797 26.8319 7.53299 26.3834 9.20682C25.935 10.8806 26.4742 12.4794 27.5878 12.7778C28.7014 13.0762 29.9678 11.9612 30.4162 10.2873Z" stroke="#45B14A" stroke-miterlimit="10" stroke-linecap="round" stroke-linejoin="round"/>
<path d="M17.402 15.8381C18.1478 15.4075 18.2277 14.1496 17.5805 13.0286C16.9333 11.9076 15.804 11.3479 15.0582 11.7785C14.3124 12.2092 14.2324 13.467 14.8796 14.588C15.5269 15.709 16.6561 16.2687 17.402 15.8381Z" stroke="#45B14A" stroke-miterlimit="10" stroke-linecap="round" stroke-linejoin="round"/>
<path d="M34.6628 14.5893C35.31 13.4683 35.2301 12.2105 34.4842 11.7799C33.7384 11.3492 32.6091 11.9089 31.9619 13.0299C31.3147 14.1509 31.3947 15.4088 32.1405 15.8394C32.8863 16.27 34.0156 15.7103 34.6628 14.5893Z" stroke="#45B14A" stroke-miterlimit="10" stroke-linecap="round" stroke-linejoin="round"/>
<path d="M19.7575 24.3499C20.7781 24.3131 21.6992 23.9612 22.4281 23.3352C23.8477 22.2946 25.697 22.2947 27.1164 23.3356C27.8452 23.9614 28.766 24.3132 29.7863 24.3499C32.5507 24.3499 32.8916 21.1855 32.0943 19.5365C31.3694 18.2083 30.357 17.0979 29.1474 16.3043L29.1468 16.3038C26.4516 14.5354 23.0916 14.5354 20.3965 16.3038C19.1865 17.0977 18.1738 18.2086 17.449 19.5374C16.637 21.1153 17.0143 24.3499 19.7575 24.3499Z" stroke="#45B14A" stroke-miterlimit="10" stroke-linecap="round" stroke-linejoin="round"/>
<path d="M13.6367 23.9494C18.7123 29.0129 24.7717 31.5853 24.7717 31.5853C24.7717 31.5853 42.457 24.0802 42.7115 9.47442C42.797 4.56184 38.5737 0.635279 33.6621 0.503488C29.644 0.394836 26.1821 2.83548 24.7717 6.32452C23.3612 2.83558 19.9003 0.394836 15.8812 0.503488C10.9697 0.635279 6.74438 4.56184 6.8319 9.47442C6.91742 14.2451 8.86108 18.2582 11.4396 21.4997M22.3293 42.6204H32.0407C33.3034 42.6204 34.5361 41.7133 34.8959 40.4937" stroke="#276E91" stroke-miterlimit="10" stroke-linecap="round" stroke-linejoin="round"/>
<path d="M42.5074 42.0381L47.2166 37.9133C48.3665 36.9073 48.5527 35.0179 47.5557 33.8037C46.5104 32.528 44.6251 32.3509 43.3605 33.4093L34.8956 40.4899C34.9761 40.2223 35.0183 39.9386 35.0183 39.6448C35.0183 38.003 33.6874 36.672 32.0455 36.672H24.3613C23.0977 36.672 21.8573 36.2806 20.8512 35.516C19.5152 34.5009 17.8492 33.8973 16.0413 33.8973C13.6268 33.8973 11.4638 34.9738 10.0039 36.672H6.02808V48.3671H10.0039L15.656 50.0663C16.6117 50.3541 17.6056 50.4999 18.6036 50.4999H30.9327C32.1651 50.4999 33.3563 50.0523 34.2828 49.2404L40.0334 44.2041M1.33984 44.1638V50.4999H6.02808V34.875H1.33984V40.8751" stroke="#276E91" stroke-miterlimit="10" stroke-linecap="round" stroke-linejoin="round"/>
</svg>
