<svg width="40" height="51" viewBox="0 0 40 51" fill="none" xmlns="http://www.w3.org/2000/svg">
<path d="M17.1557 16.2527L13.3839 18.6193L11.5868 15.6552C10.9366 14.5826 11.2994 13.1853 12.3892 12.5644C13.4383 11.9668 14.7728 12.3138 15.3978 13.347L17.1557 16.2527Z" stroke="#276E91" stroke-miterlimit="10" stroke-linecap="round" stroke-linejoin="round"/>
<path d="M22.9292 24.8933C22.07 25.1639 21.4463 25.9688 21.4463 26.9185V31.8899" stroke="#45B14A" stroke-miterlimit="10" stroke-linecap="round" stroke-linejoin="round"/>
<path d="M36.8537 45.6699L35.2883 38.1599L34.738 35.4204L32.9322 26.6156C32.7199 25.5573 31.7894 24.7947 30.7089 24.7947H26.4332" stroke="#45B14A" stroke-miterlimit="10" stroke-linecap="round" stroke-linejoin="round"/>
<path d="M17.1557 16.2528L18.8828 19.3556C18.9905 19.549 19.1362 19.7187 19.3112 19.8544C19.4862 19.99 19.6868 20.0889 19.901 20.145L24.7817 21.4236C26.0637 21.7594 26.8437 23.0568 26.539 24.3465L26.3523 25.1369C26.3326 25.22 26.2964 25.2984 26.2459 25.3674C26.1953 25.4363 26.1314 25.4944 26.058 25.5381C25.9845 25.5819 25.9031 25.6104 25.8184 25.6221C25.7337 25.6337 25.6475 25.6283 25.565 25.606L17.6419 23.4627C16.686 23.2042 15.8635 22.5936 15.3393 21.7536L13.3839 18.6194L17.1557 16.2528Z" stroke="#276E91" stroke-miterlimit="10" stroke-linecap="round" stroke-linejoin="round"/>
<path d="M16.7913 15.6501C16.9634 15.3482 17.1122 15.0526 17.2289 14.7617C19.4493 9.22955 14.9764 7.7386 12.3064 8.41365C4.62332 10.3574 1.48047 22.6702 1.48047 22.6702H13.0288C13.2823 21.6309 13.6837 20.6953 14.1434 19.8372" stroke="#276E91" stroke-miterlimit="10" stroke-linecap="round" stroke-linejoin="round"/>
<path d="M1.48049 22.6696H13.029L16.5052 34.9468C16.7229 35.5651 16.2642 36.213 15.6088 36.213H3.57566C3.31999 36.2131 3.07194 36.1259 2.87265 35.9658C2.67335 35.8056 2.53478 35.5821 2.47988 35.3324C2.14809 33.8219 1.50534 29.5065 1.33984 26.194" stroke="#276E91" stroke-miterlimit="10" stroke-linecap="round" stroke-linejoin="round"/>
<path d="M16.5515 9.1619C18.5593 10.1384 20.9793 9.30345 21.9564 7.29651L22.4349 6.31351C22.924 5.30898 22.9585 4.19943 22.6201 3.21975C22.2816 2.2437 21.5719 1.39652 20.5695 0.908589C19.2847 0.283137 17.8295 0.400541 16.6932 1.09269C16.0327 1.49464 15.502 2.07834 15.1646 2.77398L14.6861 3.75697C14.2047 4.74561 14.1634 5.83564 14.4854 6.80285C14.8161 7.79852 15.5331 8.66622 16.5515 9.1619Z" stroke="#276E91" stroke-miterlimit="10" stroke-linecap="round" stroke-linejoin="round"/>
<path d="M10.7927 4.36026C11.3997 5.35693 12.6998 5.67273 13.6964 5.06569C14.6931 4.45865 15.0089 3.15855 14.4018 2.16187C13.7947 1.16519 12.4947 0.849494 11.498 1.45654C10.5013 2.06358 10.1855 3.36368 10.7927 4.36026Z" stroke="#276E91" stroke-miterlimit="10" stroke-linecap="round" stroke-linejoin="round"/>
<path d="M14.4854 6.80273C17.86 6.69076 21.2522 4.30002 22.6201 3.21964C22.2816 2.24369 21.5719 1.39641 20.5695 0.908479C19.2847 0.283027 17.8296 0.400431 16.6932 1.09258C16.0328 1.49456 15.5021 2.07825 15.1646 2.77387L14.6861 3.75696C14.2047 4.74549 14.1634 5.83553 14.4854 6.80273Z" stroke="#276E91" stroke-miterlimit="10" stroke-linecap="round" stroke-linejoin="round"/>
<path d="M9.22991 36.2133H14.917L12.4663 46.1077C12.4663 46.1077 11.9221 47.5713 13.6917 48.4105C13.7027 48.4155 13.7128 48.4205 13.7239 48.4265C14.753 48.9417 14.3708 50.5 13.2198 50.5H8.71684C8.69168 50.5 8.66553 50.5 8.64038 50.498H8.63635" stroke="#276E91" stroke-miterlimit="10" stroke-linecap="round" stroke-linejoin="round"/>
<path d="M10.2695 36.213L7.81864 46.1075C7.81864 46.1075 7.27488 47.5713 9.04409 48.4105C9.05479 48.4156 9.06546 48.4208 9.07608 48.4261C10.1052 48.9414 9.72367 50.5 8.57276 50.5H4.06945C2.82498 50.5 1.89842 49.3512 2.1618 48.135L4.58222 36.213H10.2695Z" stroke="#276E91" stroke-miterlimit="10" stroke-linecap="round" stroke-linejoin="round"/>
<path d="M34.439 48.0852C34.439 49.4189 35.5202 50.5 36.8538 50.5C38.1874 50.5 39.2685 49.4189 39.2685 48.0852C39.2685 46.7515 38.1874 45.6704 36.8538 45.6704C35.5202 45.6704 34.439 46.7515 34.439 48.0852Z" stroke="#45B14A" stroke-miterlimit="10" stroke-linecap="round" stroke-linejoin="round"/>
<path d="M21.4463 35.4205V50.4989" stroke="#45B14A" stroke-miterlimit="10" stroke-linecap="round" stroke-linejoin="round"/>
<path d="M21.4463 35.4206V38.1604H35.2885L34.7384 35.4206H21.4463Z" stroke="#45B14A" stroke-miterlimit="10" stroke-linecap="round" stroke-linejoin="round"/>
<path d="M12.4664 46.1077H2.57349" stroke="#276E91" stroke-miterlimit="10" stroke-linecap="round" stroke-linejoin="round"/>
</svg>
