<svg width="343" height="353" viewBox="0 0 343 353" fill="none" xmlns="http://www.w3.org/2000/svg">
<g clip-path="url(#clip0_61_54)">
<path d="M237.755 311.72C312.328 286.566 352.389 205.721 327.234 131.149C302.08 56.5767 221.236 16.5155 146.663 41.6698C72.0908 66.8242 32.0296 147.669 57.1839 222.241C82.3383 296.813 163.183 336.875 237.755 311.72Z" fill="#1D364E" fill-opacity="0.06"/>
<path d="M238.74 99.1602H10.16C4.54879 99.1602 0 103.709 0 109.32V253.01C0 258.621 4.54879 263.17 10.16 263.17H238.74C244.351 263.17 248.9 258.621 248.9 253.01V109.32C248.9 103.709 244.351 99.1602 238.74 99.1602Z" fill="#CEDCE3"/>
<path d="M238.74 99.1602H10.16C8.82709 99.1588 7.50696 99.4201 6.275 99.929C5.04304 100.438 3.92338 101.184 2.97993 102.126C2.03649 103.068 1.28775 104.186 0.776451 105.417C0.265153 106.648 0.00131257 107.967 0 109.3V119.3H248.9V109.3C248.899 107.967 248.635 106.648 248.124 105.417C247.612 104.186 246.864 103.068 245.92 102.126C244.977 101.184 243.857 100.438 242.625 99.929C241.393 99.4201 240.073 99.1588 238.74 99.1602Z" fill="#1D364E"/>
<path d="M207.61 113.15C209.598 113.15 211.21 111.538 211.21 109.55C211.21 107.562 209.598 105.95 207.61 105.95C205.622 105.95 204.01 107.562 204.01 109.55C204.01 111.538 205.622 113.15 207.61 113.15Z" stroke="white" stroke-linejoin="round"/>
<path d="M221.06 113.15C223.048 113.15 224.66 111.538 224.66 109.55C224.66 107.562 223.048 105.95 221.06 105.95C219.072 105.95 217.46 107.562 217.46 109.55C217.46 111.538 219.072 113.15 221.06 113.15Z" stroke="#45B14A" stroke-linejoin="round"/>
<path d="M234.51 113.15C236.498 113.15 238.11 111.538 238.11 109.55C238.11 107.562 236.498 105.95 234.51 105.95C232.522 105.95 230.91 107.562 230.91 109.55C230.91 111.538 232.522 113.15 234.51 113.15Z" stroke="#276E91" stroke-linejoin="round"/>
<path d="M102.06 149.43C99.23 149.43 96.48 147.53 94.3 145.71L91.65 143.5C90.0927 142.163 88.1127 141.419 86.06 141.4H63.44C62.4551 141.4 61.5104 141.791 60.8131 142.486C60.1157 143.182 59.7226 144.126 59.72 145.11V228.45C59.72 229.776 60.2468 231.048 61.1844 231.986C62.1221 232.924 63.3939 233.45 64.72 233.45H178.92C180.246 233.45 181.518 232.924 182.456 231.986C183.393 231.048 183.92 229.776 183.92 228.45V154.45C183.92 153.124 183.393 151.853 182.456 150.915C181.518 149.977 180.246 149.45 178.92 149.45L102.06 149.43Z" fill="#45B14A"/>
<path d="M174.81 165.41H142.51C141.818 165.41 141.154 165.135 140.664 164.646C140.175 164.156 139.9 163.492 139.9 162.8C139.9 162.458 139.967 162.119 140.099 161.803C140.23 161.487 140.422 161.2 140.665 160.958C140.907 160.717 141.195 160.525 141.512 160.395C141.828 160.265 142.168 160.199 142.51 160.2H174.81C175.152 160.199 175.491 160.265 175.808 160.395C176.125 160.525 176.412 160.717 176.655 160.958C176.897 161.2 177.09 161.487 177.221 161.803C177.352 162.119 177.42 162.458 177.42 162.8C177.42 163.492 177.145 164.156 176.655 164.646C176.166 165.135 175.502 165.41 174.81 165.41Z" stroke="white" stroke-miterlimit="10"/>
<path d="M216.11 0.00993821C222.586 0.181794 228.869 2.25609 234.174 5.97422C239.479 9.69235 243.573 14.8898 245.944 20.9187C248.316 26.9475 248.86 33.5411 247.51 39.8773C246.159 46.2134 242.974 52.012 238.35 56.5499C237.876 57.0159 237.521 57.5887 237.314 58.2203C237.107 58.8518 237.054 59.5238 237.16 60.1799L239.61 74.6499L224.56 65.8799C223.709 65.3753 222.7 65.2043 221.73 65.3999C217.912 66.163 213.99 66.2544 210.14 65.6699C201.723 64.5181 194.074 60.1642 188.786 53.5146C183.498 46.8651 180.978 38.4322 181.751 29.9716C182.524 21.511 186.531 13.6745 192.936 8.09353C199.342 2.51254 207.653 -0.382907 216.14 0.00993821H216.11Z" fill="#276E91"/>
<path d="M214.25 47.7695C214.062 47.7757 213.875 47.7404 213.702 47.6661C213.529 47.5917 213.375 47.4802 213.25 47.3395C212.991 46.9912 212.864 46.5626 212.89 46.1295C212.868 45.6998 213.003 45.2768 213.27 44.9395C213.393 44.7943 213.546 44.6779 213.719 44.5984C213.892 44.5189 214.08 44.4783 214.27 44.4795C214.471 44.462 214.672 44.4928 214.859 44.5694C215.045 44.6459 215.21 44.766 215.34 44.9195C215.592 45.2709 215.715 45.698 215.69 46.1295C215.7 46.5466 215.569 46.9549 215.32 47.2895C215.196 47.4522 215.033 47.5814 214.846 47.6652C214.659 47.749 214.454 47.7848 214.25 47.7695ZM213.97 36.3995C213.97 35.4595 213.9 34.4895 213.87 33.4995C213.84 32.5095 213.8 31.4995 213.79 30.4995C213.78 29.4995 213.79 28.4995 213.79 27.4995V15.4395H214.94L214.99 27.4995C214.99 28.4995 214.99 29.4995 214.99 30.4995C214.99 31.4995 214.99 32.4995 214.91 33.4995C214.83 34.4995 214.84 35.4995 214.8 36.3995H213.97Z" fill="white"/>
<path d="M168.867 196.64C168.867 194.528 170.175 193.208 171.819 193.208C172.707 193.208 173.475 193.616 173.883 194.228V191.12H175.935V200H173.883V199.04C173.511 199.652 172.803 200.096 171.819 200.096C170.175 200.096 168.867 198.752 168.867 196.64ZM173.883 196.652C173.883 195.584 173.199 194.996 172.419 194.996C171.651 194.996 170.955 195.572 170.955 196.64C170.955 197.708 171.651 198.308 172.419 198.308C173.199 198.308 173.883 197.72 173.883 196.652Z" fill="white"/>
<path d="M165.809 200V196.364C165.809 195.452 165.305 194.948 164.525 194.948C163.745 194.948 163.241 195.452 163.241 196.364V200H161.189V193.304H163.241V194.192C163.649 193.628 164.369 193.232 165.269 193.232C166.817 193.232 167.849 194.288 167.849 196.088V200H165.809Z" fill="white"/>
<path d="M159.715 193.304V200H157.663V199.088C157.255 199.664 156.535 200.072 155.635 200.072C154.087 200.072 153.043 199.004 153.043 197.216V193.304H155.083V196.94C155.083 197.852 155.599 198.356 156.367 198.356C157.159 198.356 157.663 197.852 157.663 196.94V193.304H159.715Z" fill="white"/>
<path d="M152.015 196.652C152.015 198.776 150.479 200.096 148.511 200.096C146.543 200.096 145.055 198.776 145.055 196.652C145.055 194.528 146.579 193.208 148.535 193.208C150.503 193.208 152.015 194.528 152.015 196.652ZM147.143 196.652C147.143 197.78 147.767 198.32 148.511 198.32C149.243 198.32 149.927 197.78 149.927 196.652C149.927 195.512 149.255 194.984 148.535 194.984C147.791 194.984 147.143 195.512 147.143 196.652Z" fill="white"/>
<path d="M138.9 200V191.576H144.384V193.22H140.952V194.996H143.52V196.592H140.952V200H138.9Z" fill="white"/>
<path d="M127.805 196.64C127.805 194.528 129.113 193.208 130.757 193.208C131.645 193.208 132.413 193.616 132.821 194.228V191.12H134.873V200H132.821V199.04C132.449 199.652 131.741 200.096 130.757 200.096C129.113 200.096 127.805 198.752 127.805 196.64ZM132.821 196.652C132.821 195.584 132.137 194.996 131.357 194.996C130.589 194.996 129.893 195.572 129.893 196.64C129.893 197.708 130.589 198.308 131.357 198.308C132.137 198.308 132.821 197.72 132.821 196.652Z" fill="white"/>
<path d="M125.132 196.892V200H123.08V193.304H125.132V194.42C125.6 193.712 126.332 193.232 127.232 193.232V195.404H126.668C125.696 195.404 125.132 195.74 125.132 196.892Z" fill="white"/>
<path d="M121.991 196.652C121.991 198.776 120.455 200.096 118.487 200.096C116.519 200.096 115.031 198.776 115.031 196.652C115.031 194.528 116.555 193.208 118.511 193.208C120.479 193.208 121.991 194.528 121.991 196.652ZM117.119 196.652C117.119 197.78 117.743 198.32 118.487 198.32C119.219 198.32 119.903 197.78 119.903 196.652C119.903 195.512 119.231 194.984 118.511 194.984C117.767 194.984 117.119 195.512 117.119 196.652Z" fill="white"/>
<path d="M107.766 196.652C107.766 194.54 109.158 193.208 111.126 193.208C112.806 193.208 113.994 194.132 114.342 195.728H112.158C111.99 195.26 111.654 194.96 111.09 194.96C110.358 194.96 109.854 195.536 109.854 196.652C109.854 197.768 110.358 198.344 111.09 198.344C111.654 198.344 111.978 198.068 112.158 197.576H114.342C113.994 199.124 112.806 200.096 111.126 200.096C109.158 200.096 107.766 198.776 107.766 196.652Z" fill="white"/>
<path d="M103.731 194.852C103.059 194.852 102.543 195.26 102.423 196.004H104.991C104.991 195.272 104.415 194.852 103.731 194.852ZM106.935 197.78C106.611 199.088 105.423 200.096 103.755 200.096C101.787 200.096 100.371 198.776 100.371 196.652C100.371 194.528 101.763 193.208 103.755 193.208C105.711 193.208 107.091 194.504 107.091 196.544C107.091 196.736 107.079 196.94 107.055 197.144H102.411C102.483 198.02 103.023 198.428 103.683 198.428C104.259 198.428 104.583 198.14 104.751 197.78H106.935Z" fill="white"/>
<path d="M97.4029 194.312C97.4029 193.688 97.0429 193.28 96.2749 193.28H95.0029V195.368H96.2749C97.0429 195.368 97.4029 194.972 97.4029 194.312ZM92.9509 191.576H96.3949C98.4589 191.576 99.4909 192.764 99.4909 194.228C99.4909 195.284 98.9149 196.28 97.6189 196.664L99.5629 200H97.2469L95.4949 196.82H95.0029V200H92.9509V191.576Z" fill="white"/>
<path d="M89.3194 196.652C89.3194 198.776 87.7834 200.096 85.8154 200.096C83.8474 200.096 82.3594 198.776 82.3594 196.652C82.3594 194.528 83.8834 193.208 85.8394 193.208C87.8074 193.208 89.3194 194.528 89.3194 196.652ZM84.4474 196.652C84.4474 197.78 85.0714 198.32 85.8154 198.32C86.5474 198.32 87.2314 197.78 87.2314 196.652C87.2314 195.512 86.5594 194.984 85.8394 194.984C85.0954 194.984 84.4474 195.512 84.4474 196.652Z" fill="white"/>
<path d="M79.2279 191.576H81.2799V200H79.2279L75.7959 194.804V200H73.7439V191.576H75.7959L79.2279 196.796V191.576Z" fill="white"/>
</g>
<defs>
<clipPath id="clip0_61_54">
<rect width="342.18" height="352.06" fill="white"/>
</clipPath>
</defs>
</svg>
